<?xml version="1.0" standalone="no"?>
<!DOCTYPE svg PUBLIC "-//W3C//DTD SVG 1.1//EN" "http://www.w3.org/Graphics/SVG/1.1/DTD/svg11.dtd" >
<svg>
<metadata>
Created by FontForge 20110222 at Mon Apr 21 07:34:27 2014
 By Orthosie Webhosting
Copyright (c) (c) Robbie de Villiers, 2005. All rights reserved.
</metadata>
<defs>
<font id="OsloLight" horiz-adv-x="617" >
  <font-face 
    font-family="OsloLight"
    font-weight="300"
    font-stretch="normal"
    units-per-em="1000"
    panose-1="0 0 3 0 0 0 0 0 0 0"
    ascent="800"
    descent="-200"
    x-height="490"
    cap-height="712"
    bbox="-173 -231 1002 936"
    underline-thickness="50"
    underline-position="-75"
    unicode-range="U+0020-F002"
  />
<missing-glyph horiz-adv-x="500" 
d="M63 0v777h375v-777h-375zM125 63h250v652h-250v-652z" />
    <glyph glyph-name=".notdef" horiz-adv-x="500" 
d="M63 0v777h375v-777h-375zM125 63h250v652h-250v-652z" />
    <glyph glyph-name=".null" horiz-adv-x="0" 
 />
    <glyph glyph-name="nonmarkingreturn" horiz-adv-x="285" 
 />
    <glyph glyph-name="space" unicode=" " horiz-adv-x="285" 
 />
    <glyph glyph-name="exclam" unicode="!" horiz-adv-x="297" 
d="M148 85q35 0 37.5 -3t2.5 -40q0 -38 -2.5 -41t-36.5 -3q-35 0 -37.5 3t-2.5 40q0 38 2.5 41t36.5 3zM178 711l2 -214l-7 -318h-48l-8 318l3 214h58z" />
    <glyph glyph-name="quotedbl" unicode="&#x22;" horiz-adv-x="395" 
d="M290 712l-1 -112l-4 -115h-48l-4 116l-1 111h58zM164 712l-1 -112l-4 -115h-48l-4 116l-1 111h58z" />
    <glyph glyph-name="numbersign" unicode="#" horiz-adv-x="591" 
d="M46 272h115l25 163h-118v50h126l34 217h52l-34 -217h149l34 217h52l-34 -217h99v-50h-107l-25 -163h110v-50h-118l-35 -222h-52l35 222h-149l-35 -222h-52l35 222h-107v50zM213 272h149l25 163h-149z" />
    <glyph glyph-name="dollar" unicode="$" horiz-adv-x="562" 
d="M498 183q0 -82 -65 -137q-49 -42 -122 -52v-102h-49v99q-61 1 -111 25q-61 29 -91 69l26 47q67 -90 185 -90q72 0 120.5 40.5t48.5 101.5q0 53 -45 90q-37 30 -124 64q-95 37 -139 77q-52 48 -52 118q0 74 54 124q51 47 127 55l1 67h49l-1 -66q44 -1 83 -17
q54 -22 77 -47l-23 -51q-57 64 -158 64q-66 0 -108.5 -36t-42.5 -93q0 -46 45 -82q38 -31 123 -66q102 -42 143 -81q49 -47 49 -121z" />
    <glyph glyph-name="percent" unicode="%" horiz-adv-x="844" 
d="M619 723h53l-450 -736h-52zM225 718q69 0 114 -47.5t45 -120.5q0 -75 -44.5 -122t-114.5 -47q-71 0 -115.5 47.5t-44.5 122.5q0 73 45 120t115 47zM226 671q-48 0 -79 -34t-31 -86q0 -53 31 -87.5t79 -34.5t77.5 34t29.5 88q0 52 -30 86t-77 34zM620 329q69 0 114 -47
t45 -120q0 -74 -44.5 -121t-114.5 -47q-71 0 -115 47t-44 122q0 72 44.5 119t114.5 47zM621 283q-48 0 -78.5 -34t-30.5 -86q0 -53 30.5 -87t78.5 -34t77.5 33.5t29.5 87.5q0 52 -30 86t-77 34z" />
    <glyph glyph-name="ampersand" unicode="&#x26;" horiz-adv-x="651" 
d="M551 346l53 1q-16 -107 -91 -209q38 -47 118 -142h-70q-27 33 -85 99q-102 -106 -230 -106q-97 0 -155 57q-53 52 -53 128q0 146 180 226q-1 2 -3 4.5t-3 3.5q-75 90 -75 161q0 65 47.5 107t117.5 42q63 0 107 -39t44 -102q0 -111 -153 -190q59 -69 176 -208q32 48 46 82
q20 47 29 85zM267 427q126 59 126 146q0 44 -26.5 69.5t-68.5 25.5t-71 -26q-31 -29 -31 -75q0 -69 71 -140zM251 360q-65 -29 -107 -73q-45 -47 -45 -108q0 -62 43 -101t104 -39q101 0 194 97q-116 134 -189 224z" />
    <glyph glyph-name="quotesingle" unicode="'" horiz-adv-x="243" 
d="M151 712l-1 -112l-4 -115h-48l-4 116l-1 111h58z" />
    <glyph glyph-name="parenleft" unicode="(" horiz-adv-x="292" 
d="M115 290q0 -125 50 -261q40 -111 92 -180l-48 -5q-54 69 -95 177q-54 138 -54 269q0 132 54 270q41 108 95 177l48 -5q-52 -69 -92 -180q-50 -137 -50 -262z" />
    <glyph glyph-name="parenright" unicode=")" horiz-adv-x="292" 
d="M177 290q0 125 -50 262q-40 111 -92 180l48 5q54 -69 96 -177q53 -138 53 -270q0 -131 -53 -269q-42 -108 -96 -177l-48 5q52 69 92 180q50 136 50 261z" />
    <glyph glyph-name="asterisk" unicode="*" horiz-adv-x="540" 
d="M252 496l-126 -81l-27 47l133 68l-133 68l27 47l126 -81l-8 149h54l-8 -149l126 81l27 -47l-133 -68l133 -68l-27 -47l-126 81l8 -149h-54z" />
    <glyph glyph-name="plus" unicode="+" 
d="M280 306v226h56v-226h229v-56h-229v-229h-56v229h-229v56h229z" />
    <glyph glyph-name="comma" unicode="," horiz-adv-x="264" 
d="M127 79h35q12 0 12 -11q0 -25 -4 -49q-6 -38 -53 -150q-8 -10 -19 -10q-9 0 -25 7l8 29q24 87 24 134v22q0 28 22 28z" />
    <glyph glyph-name="hyphen" unicode="-" horiz-adv-x="299" 
d="M32 297h234v-56h-234v56z" />
    <glyph glyph-name="hyphen" unicode="&#x2010;" horiz-adv-x="299" 
d="M32 297h234v-56h-234v56z" />
    <glyph glyph-name="period" unicode="." horiz-adv-x="264" 
d="M132 86q27 0 33 -8.5t6 -35.5q0 -28 -4 -35q-7 -9 -35 -9q-26 0 -32.5 9t-6.5 35q0 28 6 36t33 8z" />
    <glyph glyph-name="slash" unicode="/" horiz-adv-x="355" 
d="M-6 -33l310 768h57l-310 -768h-57z" />
    <glyph glyph-name="zero" unicode="0" horiz-adv-x="558" 
d="M518 357q0 -167 -64 -266t-176 -99t-176 98.5t-64 264.5q0 167 64 266t177 99q112 0 175.5 -98.5t63.5 -264.5zM458 355q0 144 -47.5 228.5t-132.5 84.5q-84 0 -132 -84.5t-48 -226.5q0 -144 47 -227q49 -86 134 -86q84 0 131.5 84.5t47.5 226.5z" />
    <glyph glyph-name="one" unicode="1" horiz-adv-x="558" 
d="M328 713v-713h-60v647l-86 -39l-20 44l134 61h32z" />
    <glyph glyph-name="two" unicode="2" horiz-adv-x="558" 
d="M53 0v35q59 77 247 278q110 118 110 208q0 64 -42.5 105.5t-106.5 41.5q-61 0 -110 -32q-42 -28 -62 -69l-30 44q22 43 76 74q60 35 128 35q92 0 150 -55t58 -141q0 -118 -135 -253q-131 -131 -196 -218h346v-53h-433z" />
    <glyph glyph-name="three" unicode="3" horiz-adv-x="558" 
d="M104 594l-22 43q19 33 65 57q52 26 115 26q95 0 154 -49t59 -129q0 -123 -131 -167q64 -14 101 -60.5t37 -115.5q0 -94 -65 -150.5t-171 -56.5q-70 0 -122.5 26t-67.5 62l24 41q14 -30 56 -52q48 -25 110 -25q80 0 128 42.5t48 113.5t-48.5 108.5t-136.5 37.5h-39v53h25
q88 0 140 37.5t52 105.5q0 54 -43.5 90t-112.5 36q-56 0 -100 -23q-39 -21 -55 -51z" />
    <glyph glyph-name="four" unicode="4" horiz-adv-x="558" 
d="M367 720h56l-1 -486h103v-52h-103v-182h-60v182h-345v41zM362 634l-275 -400h275v400z" />
    <glyph glyph-name="five" unicode="5" horiz-adv-x="558" 
d="M460 711v-53h-276l-19 -223q40 21 96 21q103 0 166.5 -62t63.5 -164q0 -108 -69.5 -173t-181.5 -65q-61 0 -116 24q-47 21 -67 48l20 50q17 -23 58 -44q51 -26 105 -26q86 0 139 50.5t53 133.5q0 81 -51 128.5t-136 47.5q-55 0 -112 -41l-31 5l29 343h329z" />
    <glyph glyph-name="six" unicode="6" horiz-adv-x="558" 
d="M516 217q0 -97 -65.5 -161t-165.5 -64q-108 0 -170 73q-65 77 -65 222q0 152 77 268q68 104 174 146q36 14 90 14q15 0 24 -2l9 -50q-20 12 -69 2q-97 -20 -172 -133q-45 -68 -65 -170q66 83 174 83q100 0 162 -63t62 -165zM112 251q12 -207 173 -207q75 0 123 48.5
t48 124.5q0 78 -46 126.5t-122 48.5q-66 0 -114.5 -38.5t-61.5 -102.5z" />
    <glyph glyph-name="seven" unicode="7" horiz-adv-x="558" 
d="M514 711v-31l-343 -684l-61 11l330 651h-386v53h460z" />
    <glyph glyph-name="eight" unicode="8" horiz-adv-x="558" 
d="M279 346q-166 -40 -166 -158q0 -63 47 -103.5t119 -40.5t119 40.5t47 102.5q0 58 -45 99t-121 60zM279 667q-64 0 -105 -36t-41 -93q0 -52 41 -91.5t105 -51.5q57 10 99 49q46 42 46 96q0 55 -41.5 91t-103.5 36zM196 371q-123 65 -123 169q0 79 59.5 129.5t150.5 50.5
q89 0 145 -50.5t56 -130.5q0 -106 -123 -168q143 -59 143 -184q0 -89 -62 -142t-164 -53q-99 0 -162 53.5t-63 138.5q0 131 143 187z" />
    <glyph glyph-name="nine" unicode="9" horiz-adv-x="558" 
d="M38 492q0 99 65 163.5t166 64.5q111 0 173 -74q65 -77 65 -224q0 -156 -83 -274q-84 -121 -218 -145q-41 -8 -80 7l-4 50q35 -14 70 -8q52 8 105 48q48 36 80 84q43 64 61 164q-66 -81 -174 -81q-99 0 -162.5 63t-63.5 162zM445 460q-12 208 -177 208q-75 0 -122.5 -49
t-47.5 -126t46.5 -125.5t120.5 -48.5q64 0 115.5 39.5t64.5 101.5z" />
    <glyph glyph-name="colon" unicode=":" horiz-adv-x="264" 
d="M132 466q27 0 33 -7t6 -37q0 -27 -6 -35.5t-33 -8.5q-26 0 -32.5 9t-6.5 35q0 27 6 35.5t33 8.5zM132 86q27 0 33 -7t6 -37q0 -29 -6.5 -36.5t-32.5 -7.5t-32.5 9t-6.5 35q0 28 5.5 36t33.5 8z" />
    <glyph glyph-name="semicolon" unicode=";" horiz-adv-x="264" 
d="M134 466q28 0 33.5 -6t5.5 -38q0 -35 -13 -41q-8 -3 -26 -3q-31 0 -36 17q-3 8 -3 27q0 29 6.5 36.5t32.5 7.5zM127 79h35q13 0 13 -17q0 -12 -5 -43q-6 -38 -53 -150q-8 -10 -19 -10q-9 0 -25 7l8 29q24 87 24 134v22q0 28 22 28z" />
    <glyph glyph-name="less" unicode="&#x3c;" 
d="M116 276l450 -200v-56l-514 230v52l514 230v-56z" />
    <glyph glyph-name="equal" unicode="=" 
d="M51 349v56h514v-56h-514zM51 147v56h514v-56h-514z" />
    <glyph glyph-name="greater" unicode="&#x3e;" 
d="M52 76l449 200l-449 200v56l514 -230v-52l-514 -230v56z" />
    <glyph glyph-name="question" unicode="?" horiz-adv-x="430" 
d="M202 723q83 0 129 -50q43 -46 43 -118q0 -53 -48 -111q-43 -43 -86 -87q-35 -36 -35 -80q0 -34 22 -71q-11 -6 -47 -28q-35 49 -35 99q0 66 59 120q35 36 70 71q41 47 41 89q0 51 -31.5 82.5t-84.5 31.5q-37 0 -68.5 -20t-44.5 -46q-9 14 -28 41q14 29 53 52q43 25 91 25
zM193 85q28 0 34 -6.5t6 -36.5t-4 -35q-6 -9 -35 -9q-27 0 -33.5 8t-6.5 35q0 33 6 38.5t33 5.5z" />
    <glyph glyph-name="at" unicode="@" horiz-adv-x="800" 
d="M414 723q149 0 250 -95q98 -92 98 -221q0 -113 -63 -185q-58 -66 -134 -65q-33 0 -55 20q-27 24 -22 73q-41 -92 -145 -92q-56 0 -94 46t-38 114q0 34 11 69q23 71 80.5 121.5t123.5 49.5q56 -1 93.5 -24.5t45.5 -62.5q10 -49 -4 -100l-28 -103q-2 -7 -2 -15q0 -20 9 -35
q11 -18 29 -18q50 0 93 55q48 62 48 155q0 107 -85 185.5t-209 78.5q-136 0 -233 -97.5t-97 -238.5q0 -140 101 -237q97 -94 227 -94q91 0 172 41q75 37 108 89l29 -37q-34 -58 -118 -99q-88 -43 -183 -43q-168 0 -281 115q-109 112 -109 271q0 151 112 265t270 114z
M427 509q-50 0 -89 -36.5t-58 -91.5q-13 -37 -13 -73q0 -100 81 -100q76 0 122 73q32 52 44 126q2 13 2 24q0 78 -89 78z" />
    <glyph glyph-name="A" unicode="A" horiz-adv-x="650" 
d="M468 273l-143 367l-144 -367h287zM636 0h-62l-86 220h-328l-86 -220h-61l286 719h55z" />
    <glyph glyph-name="B" unicode="B" horiz-adv-x="575" 
d="M145 341v-288h124q89 0 139.5 37t50.5 105q0 146 -199 146h-115zM270 0h-185v712h172q223 0 223 -181q0 -116 -110 -156q72 -17 111.5 -63.5t39.5 -112.5q0 -96 -65.5 -147.5t-185.5 -51.5zM146 394h104q168 0 168 134q0 131 -169 131h-103v-265z" />
    <glyph glyph-name="C" unicode="C" horiz-adv-x="673" 
d="M111 356q0 -138 79.5 -225.5t206.5 -87.5q130 0 201 85l14 -50q-80 -88 -210 -88q-157 0 -255 102t-98 264q0 159 98.5 262.5t250.5 103.5q138 0 214 -82l-19 -55q-78 84 -198 84q-126 0 -205 -87.5t-79 -225.5z" />
    <glyph glyph-name="D" unicode="D" horiz-adv-x="679" 
d="M563 355q0 144 -77.5 224t-217.5 80h-124v-606h106q147 0 230 80t83 222zM84 712h190q165 0 258 -95t93 -262q0 -166 -98.5 -260.5t-274.5 -94.5h-168v712z" />
    <glyph glyph-name="E" unicode="E" horiz-adv-x="511" 
d="M464 0h-377v712h367v-53h-307v-262h277v-53l-277 -1v-290h317v-53z" />
    <glyph glyph-name="F" unicode="F" horiz-adv-x="465" 
d="M143 0h-60v712h349v-53h-289v-259h256v-54h-256v-346z" />
    <glyph glyph-name="G" unicode="G" horiz-adv-x="732" 
d="M114 357q0 -142 80 -228t213 -86q69 0 124.5 31.5t69.5 81.5v145h-185v52h245v-226l-12 -22q-30 -54 -100 -86q-66 -29 -145 -29q-156 0 -254 102t-98 265q0 160 97.5 262.5t249.5 102.5q77 0 144 -27q64 -27 98 -70l-26 -51q-84 95 -216 95q-125 0 -205 -87.5
t-80 -224.5z" />
    <glyph glyph-name="H" unicode="H" horiz-adv-x="699" 
d="M87 712h60v-315h406v315h60v-712h-60v344h-406v-344h-60v712z" />
    <glyph glyph-name="I" unicode="I" horiz-adv-x="228" 
d="M144 0h-60v712h60v-712z" />
    <glyph glyph-name="J" unicode="J" horiz-adv-x="305" 
d="M158 712h60v-610q0 -183 -153 -183q-69 0 -102 36l26 51q26 -33 75 -33q94 0 94 136v603z" />
    <glyph glyph-name="K" unicode="K" horiz-adv-x="586" 
d="M149 0h-60v712h60v-343l331 343h79l-323 -329l350 -383h-78l-311 344l-48 -51v-293z" />
    <glyph glyph-name="L" unicode="L" horiz-adv-x="436" 
d="M143 712v-659h282v-51l-342 -2v712h60z" />
    <glyph glyph-name="M" unicode="M" horiz-adv-x="857" 
d="M681 718h72l34 -718h-60l-27 637l-251 -582h-37l-254 583l-27 -638h-60l34 718h75l251 -568z" />
    <glyph glyph-name="N" unicode="N" horiz-adv-x="737" 
d="M594 91v621h60v-717h-58l-2 5l-451 630v-630h-60v718h65q74 -109 223.5 -314t222.5 -313z" />
    <glyph glyph-name="O" unicode="O" horiz-adv-x="760" 
d="M647 356q0 135 -76 224t-193 89t-192.5 -89t-75.5 -224q0 -136 75.5 -224.5t192.5 -88.5t193 88.5t76 224.5zM709 356q0 -162 -92 -264t-239 -102t-238.5 102t-91.5 264t91.5 264t238.5 102t239 -102t92 -264z" />
    <glyph glyph-name="P" unicode="P" horiz-adv-x="518" 
d="M147 374l105 1q175 2 175 144q0 140 -160 140h-120v-285zM147 321v-321h-60v712h182q105 0 162 -51t57 -146q0 -90 -60.5 -142t-163.5 -52h-117z" />
    <glyph glyph-name="Q" unicode="Q" horiz-adv-x="760" 
d="M471 58q-15 17 -48 52l40 34q40 -42 56 -62q24 17 52 49q76 89 76 225q0 135 -76 224t-193 89t-192.5 -89t-75.5 -224q0 -136 75.5 -224.5t192.5 -88.5q55 0 93 15zM659 -58l-42 -34l-103 109q-51 -27 -136 -27q-147 0 -238.5 102t-91.5 264t91.5 264t238.5 102t239 -102
t92 -264q0 -161 -92 -264q-20 -22 -56 -49z" />
    <glyph glyph-name="R" unicode="R" horiz-adv-x="567" 
d="M147 334v-334h-60v712h178q105 0 161 -48t56 -139q0 -69 -41 -114q-43 -49 -121 -61q37 -25 92 -124l126 -226h-67l-117 209q-33 59 -49 78q-28 34 -69 47h-89zM147 387h103q79 0 124.5 37t45.5 103q0 132 -166 132h-107v-272z" />
    <glyph glyph-name="S" unicode="S" horiz-adv-x="514" 
d="M465 186q0 -84 -62.5 -140t-156.5 -56q-137 0 -200 88l27 57q23 -39 67 -64q48 -28 104 -28q69 0 114.5 41t45.5 103q0 54 -43 92q-35 31 -118 65q-90 37 -132 77q-51 49 -51 119q0 79 58.5 130.5t147.5 51.5q54 0 103 -20.5t70 -50.5l-26 -49q-50 67 -147 67
q-63 0 -103.5 -36t-40.5 -94q0 -46 44 -83q36 -30 118 -65q96 -41 135 -82q46 -48 46 -123z" />
    <glyph glyph-name="T" unicode="T" horiz-adv-x="516" 
d="M288 0h-60v659h-216v53h492v-53h-216v-659z" />
    <glyph glyph-name="U" unicode="U" horiz-adv-x="683" 
d="M543 255v457h60v-460q0 -121 -70.5 -191.5t-190.5 -70.5q-121 0 -191.5 69.5t-70.5 189.5v463h60v-459q0 -100 53 -155t149 -55q95 0 148 56t53 156z" />
    <glyph glyph-name="V" unicode="V" horiz-adv-x="584" 
d="M520 712h62l-268 -719h-45l-264 719h63l225 -622z" />
    <glyph glyph-name="W" unicode="W" horiz-adv-x="974" 
d="M904 712h59l-227 -719h-46l-203 625l-207 -625h-48l-223 719h62l188 -614l205 621l47 1l202 -623z" />
    <glyph glyph-name="X" unicode="X" horiz-adv-x="591" 
d="M498 712h71l-235 -343l252 -369h-73l-216 321l-218 -321h-71l252 369l-235 343h72l201 -295z" />
    <glyph glyph-name="Y" unicode="Y" horiz-adv-x="583" 
d="M505 712h68l-252 -394v-318h-60v319l-252 393h70l211 -339z" />
    <glyph glyph-name="Z" unicode="Z" horiz-adv-x="553" 
d="M523 53v-53h-500l-1 37l417 622h-394l1 53h472l1 -39l-417 -620h421z" />
    <glyph glyph-name="bracketleft" unicode="[" horiz-adv-x="298" 
d="M130 684v-787q0 -7 9 -7h115v-46h-87q-34 0 -68 -1q-26 -1 -26 6v883q0 5 26 5h155v-46h-115q-9 0 -9 -7z" />
    <glyph glyph-name="backslash" unicode="\" horiz-adv-x="355" 
d="M306 -8l-313 743h57l313 -743h-57z" />
    <glyph glyph-name="bracketright" unicode="]" horiz-adv-x="298" 
d="M170 684q0 7 -10 7h-115v46h156q26 0 26 -5v-883q0 -7 -26 -6q-34 1 -69 1h-87v46h115q10 0 10 7v787z" />
    <glyph glyph-name="asciicircum" unicode="^" 
d="M121 308l-57 6l220 399h48l219 -399l-57 -6l-186 342z" />
    <glyph glyph-name="underscore" unicode="_" horiz-adv-x="500" 
d="M504 -136h-505v52h505v-52z" />
    <glyph glyph-name="grave" unicode="`" horiz-adv-x="265" 
d="M204 559l-42 -1l-134 142l75 1z" />
    <glyph glyph-name="a" unicode="a" horiz-adv-x="486" 
d="M356 152v86q-27 10 -100 10q-77 0 -121 -35q-40 -33 -40 -84q0 -42 28.5 -67t82.5 -25q58 0 100 34q40 31 50 81zM359 63q-65 -74 -161 -74q-73 0 -116.5 39t-43.5 100q0 74 56.5 118.5t155.5 44.5q62 0 106 -9v59q0 112 -121 112q-81 0 -141 -52l-18 42q21 21 63 38
q48 19 99 19q173 0 173 -151v-280l6 -74h-52q-6 34 -6 68z" />
    <glyph glyph-name="b" unicode="b" horiz-adv-x="547" 
d="M131 413q64 87 166 87q98 0 154 -68.5t56 -185.5q0 -116 -61 -186t-164 -70q-100 0 -162 79l-4 -65l-41 1v741h56v-333zM130 294v-108q8 -66 50 -107t104 -41q74 0 119 57.5t45 150.5q0 94 -42.5 151t-114.5 57q-64 0 -108 -45t-53 -115z" />
    <glyph glyph-name="c" unicode="c" horiz-adv-x="456" 
d="M410 92l12 -50q-57 -52 -148 -52q-108 0 -172 69.5t-64 185.5q0 114 65.5 184.5t172.5 70.5q87 0 141 -52l-13 -50q-52 54 -126 54q-83 0 -132.5 -56t-49.5 -149t50 -151t132 -58q38 0 77 17q36 15 55 37z" />
    <glyph glyph-name="d" unicode="d" horiz-adv-x="547" 
d="M420 71q-58 -81 -158 -81q-101 0 -160.5 69.5t-59.5 184.5q0 117 58.5 186.5t159.5 69.5q100 0 158 -82v328h56v-746h-52zM418 191v110q-7 64 -50.5 107.5t-103.5 43.5q-75 0 -119.5 -57t-44.5 -151q0 -93 45 -149.5t121 -56.5q62 0 104 44t48 109z" />
    <glyph glyph-name="e" unicode="e" horiz-adv-x="498" 
d="M419 105l26 -41q-25 -33 -74.5 -53.5t-103.5 -20.5q-108 0 -168.5 68.5t-60.5 188.5q0 109 60 181t153 72q96 0 152 -65t56 -178v-17h-365q4 -91 45 -143q47 -59 134 -59q47 0 91 23q37 19 55 44zM96 287h303q-7 75 -45 120t-98 45q-68 0 -112 -50q-39 -44 -48 -115z" />
    <glyph glyph-name="f" unicode="f" horiz-adv-x="283" 
d="M157 442v-442h-56v442h-84v47h84v104q0 164 136 164q31 0 58 -12l-1 -48q-27 12 -56 12q-81 0 -81 -114v-106h107v-47h-107z" />
    <glyph glyph-name="g" unicode="g" horiz-adv-x="506" 
d="M244 455q-57 0 -93 -38t-36 -99q0 -58 35.5 -95t92.5 -37q58 0 93.5 35.5t35.5 95.5q0 65 -34 101.5t-94 36.5zM58 320q0 78 53.5 129t132.5 51q62 0 105 -29q54 33 135 32q0 2 -1 -46q-62 0 -94 -19q39 -45 39 -120q0 -80 -52 -129.5t-135 -49.5q-29 0 -49 6
q-17 -6 -31 -14q-24 -13 -24 -35q0 -42 124 -47q210 -8 210 -134q0 -67 -62 -103q-58 -34 -160 -34q-104 0 -163 34t-59 95q0 76 108 115q-55 18 -55 66q0 52 64 77q-23 16 -33 26q-53 53 -53 129zM220 1q-76 -11 -105 -33q-32 -24 -32 -59q0 -37 40 -61q44 -25 124 -25
q71 0 116 21q51 24 51 68q0 37 -43 60t-118 26q-18 1 -33 3z" />
    <glyph glyph-name="h" unicode="h" horiz-adv-x="528" 
d="M451 314v-314h-56v308q0 144 -114 144q-119 0 -150 -152v-300h-56v746h56v-342q55 96 156 96q164 0 164 -186z" />
    <glyph glyph-name="i" unicode="i" horiz-adv-x="218" 
d="M76 662q0 28 5 35t27 7q23 0 29 -10q3 -6 3 -32q0 -25 -3 -31q-6 -11 -29 -11q-22 0 -27 7t-5 35zM136 490v-490h-56v490h56z" />
    <glyph glyph-name="j" unicode="j" horiz-adv-x="218" 
d="M76 662q0 29 5 35.5t27 6.5q21 0 26.5 -7t5.5 -35q0 -25 -4 -32q-6 -10 -28 -10q-24 0 -29 9q-3 5 -3 33zM80 490h56v-554q0 -77 -31 -121q-29 -39 -71 -37l-34 2v53l24 -5q31 1 43.5 24.5t12.5 84.5v553z" />
    <glyph glyph-name="k" unicode="k" horiz-adv-x="470" 
d="M431 490l-222 -212l260 -278h-73l-234 246l-30 -30l1 -216h-58v746h56l-1 -476l231 220h70z" />
    <glyph glyph-name="l" unicode="l" horiz-adv-x="210" 
d="M76 746h56l-1 -746h-55v746z" />
    <glyph glyph-name="m" unicode="m" horiz-adv-x="797" 
d="M724 321v-321h-56v319q0 133 -103 133q-55 0 -91.5 -39.5t-46.5 -106.5v-306h-55v319q0 133 -103 133q-112 0 -138 -149v-303h-56v490h53v-82q53 92 151 92q109 0 135 -102q51 102 158 102q152 0 152 -179z" />
    <glyph glyph-name="n" unicode="n" horiz-adv-x="528" 
d="M451 314v-314h-56v308q0 144 -114 144q-119 0 -150 -152v-300h-56v490h53v-86q58 96 159 96q164 0 164 -186z" />
    <glyph glyph-name="o" unicode="o" horiz-adv-x="540" 
d="M502 245q0 -114 -64 -184.5t-168 -70.5t-168 70.5t-64 184.5t64 184.5t168 70.5t168 -70.5t64 -184.5zM444 245q0 91 -48.5 149t-125.5 58t-125.5 -58t-48.5 -149t48.5 -149t125.5 -58t125.5 58t48.5 149z" />
    <glyph glyph-name="p" unicode="p" horiz-adv-x="547" 
d="M131 69v-290h-56v711h54v-75q63 84 157 84q101 0 160 -69.5t59 -185.5q0 -114 -58.5 -184t-156.5 -70q-103 0 -159 79zM130 186q7 -62 49.5 -105t101.5 -43q78 0 121.5 55.5t43.5 151.5q0 91 -45.5 148.5t-118.5 57.5q-59 0 -100 -41t-52 -109v-115z" />
    <glyph glyph-name="q" unicode="q" horiz-adv-x="547" 
d="M417 73q-57 -83 -161 -83q-98 0 -156.5 68.5t-58.5 182.5q0 120 57.5 189t161.5 69q97 0 158 -81l2 70h53v-709h-56v294zM418 188v113q-9 66 -51.5 108t-102.5 42q-77 0 -121 -56.5t-44 -152.5q0 -94 44.5 -149.5t121.5 -55.5q59 0 102.5 44t50.5 107z" />
    <glyph glyph-name="r" unicode="r" horiz-adv-x="321" 
d="M132 268v-268h-56v490h54v-94q47 104 136 104q25 0 54 -17l-18 -49q-1 3 -16.5 7t-25.5 4q-54 0 -91 -51.5t-37 -125.5z" />
    <glyph glyph-name="s" unicode="s" horiz-adv-x="390" 
d="M353 132q0 -63 -47 -103t-122 -40q-46 0 -88.5 17.5t-63.5 47.5l20 43q44 -59 134 -59q47 0 79 26t32 66q0 37 -27.5 60t-90.5 45q-133 46 -133 135q0 59 43 94.5t108 35.5q41 0 79 -15t57 -37l-25 -43q-43 48 -109 48q-46 0 -72.5 -23t-26.5 -59q0 -53 112 -92
q72 -25 105 -57q36 -36 36 -90z" />
    <glyph glyph-name="t" unicode="t" horiz-adv-x="305" 
d="M157 96q0 -58 51 -58q26 0 52 12v-47q-36 -11 -70 -11q-89 0 -89 97v353h-89v47h89v138l56 17v-155h110v-47h-110v-346z" />
    <glyph glyph-name="u" unicode="u" horiz-adv-x="524" 
d="M450 490v-495h-44v105q-45 -110 -163 -110q-169 0 -169 182v318h56v-307q0 -145 119 -145q59 0 99 40.5t46 98.5v313h56z" />
    <glyph glyph-name="v" unicode="v" horiz-adv-x="438" 
d="M432 490l-190 -497h-46l-188 497h58l154 -418l154 418h58z" />
    <glyph glyph-name="w" unicode="w" horiz-adv-x="736" 
d="M391 496l137 -419l143 413h56l-178 -497h-44l-140 419l-139 -419h-47l-174 497h58l140 -414l141 420h47z" />
    <glyph glyph-name="x" unicode="x" horiz-adv-x="474" 
d="M433 490l-174 -232l188 -258h-68l-151 217l-154 -217h-67l189 258l-175 232h68l139 -192l139 192h66z" />
    <glyph glyph-name="y" unicode="y" horiz-adv-x="442" 
d="M379 490h59l-251 -626q-36 -91 -93 -88l-42 2v48l28 -4q34 0 53 45l64 150l-191 473h60l158 -405z" />
    <glyph glyph-name="z" unicode="z" horiz-adv-x="442" 
d="M45 490h372l1 -31l-320 -411h322v-48h-401v31l323 411h-297v48z" />
    <glyph glyph-name="braceleft" unicode="{" horiz-adv-x="305" 
d="M43 267v47q76 18 76 120v171q0 132 122 132h28v-47h-38q-54 0 -54 -80v-166q0 -114 -86 -154q86 -37 86 -153v-166q0 -80 54 -80h38v-47h-28q-122 0 -122 132v171q0 102 -76 120z" />
    <glyph glyph-name="bar" unicode="|" horiz-adv-x="242" 
d="M93 -60v823h57v-823h-57z" />
    <glyph glyph-name="braceright" unicode="}" horiz-adv-x="305" 
d="M263 314v-47q-76 -18 -76 -120v-171q0 -132 -122 -132h-28v47h38q54 0 54 80v166q0 116 86 153q-86 40 -86 154v166q0 80 -54 80h-38v47h28q122 0 122 -132v-171q0 -102 76 -120z" />
    <glyph glyph-name="asciitilde" unicode="~" 
d="M195 280q-55 0 -101 -71l-32 43q18 35 51 58q39 28 84 28q41 0 117 -36.5t108 -36.5q47 0 101 71l32 -43q-18 -35 -51 -58q-39 -28 -84 -28q-43 0 -119 36.5t-106 36.5z" />
    <glyph glyph-name="nonbreakingspace" unicode="&#xa0;" horiz-adv-x="511" 
d="M464 0h-377v712h367v-53h-307v-262h277v-53l-277 -1v-290h317v-53zM402 6l27 -1q-36 -21 -62 -50q-29 -33 -29 -62q0 -54 58 -54q32 0 65 26l2 -27q-36 -38 -87 -38q-40 0 -67 22.5t-27 59.5q0 38 34 71.5t86 52.5z" />
    <glyph glyph-name="exclamdown" unicode="&#xa1;" horiz-adv-x="297" 
d="M149 406q-35 0 -37.5 3t-2.5 40q0 38 2.5 41t36.5 3q35 0 37.5 -3t2.5 -40q0 -38 -2.5 -41t-36.5 -3zM119 -220l-2 214l7 318h48l8 -318l-3 -214h-58z" />
    <glyph glyph-name="cent" unicode="&#xa2;" horiz-adv-x="541" 
d="M227 -95h-47l36 136q-46 24 -70 50q-64 70 -64 186q0 114 65.5 184.5t172.5 70.5q18 0 26 -1l29 109h47l-31 -119q41 -14 70 -41l-13 -50q-20 22 -52 36q-1 1 -18 8l-106 -398q20 -6 50 -6q38 0 77 17q36 15 55 37l12 -50q-57 -52 -148 -52q-37 0 -58 6zM230 94l104 390
h-12q-83 0 -132.5 -56t-49.5 -149q0 -92 50 -151q15 -18 40 -34z" />
    <glyph glyph-name="sterling" unicode="&#xa3;" horiz-adv-x="568" 
d="M195 21q92 -23 149 -23q59 0 114 17q47 15 66 34l-22 48q-65 -46 -147 -46q-46 0 -152 26q46 80 47 160q1 9 0 43q-2 40 -2 34h136v49h-143q-11 52 -25 147q-11 159 129 159q77 0 109 -58l40 34q-14 35 -57 55q-39 18 -90 18q-88 0 -140 -51t-52 -134q0 -34 10 -85
q8 -43 16 -85h-100v-49h106q1 -12 1 -66q0 -42 -12.5 -90t-32.5 -73q-55 0 -107 -34q24 -36 30 -47q38 25 78 25q20 0 51 -8z" />
    <glyph glyph-name="currency" unicode="&#xa4;" horiz-adv-x="673" 
d="M0 291v40h50q-1 8 -1 25q0 25 1 37h-50v45h56q25 127 118 205.5t224 78.5q133 0 210 -83l-15 -54q-78 84 -198 84q-105 0 -179 -63t-97 -168h383v-45h-389q-2 -24 -2 -37q0 -17 1 -25h392v-40h-388q18 -113 94 -180.5t187 -67.5q130 0 201 85l18 -54q-84 -84 -214 -84
q-140 0 -234.5 82.5t-114.5 218.5h-53z" />
    <glyph glyph-name="yen" unicode="&#xa5;" horiz-adv-x="570" 
d="M75 261h178v46l-21 37h-157v47h131l-186 328h69l195 -355l200 355h67l-187 -328h129v-47h-156l-22 -38v-45h178v-47h-178v-214h-62v214h-178v47z" />
    <glyph glyph-name="brokenbar" unicode="&#xa6;" horiz-adv-x="498" 
d="M419 105l26 -41q-25 -33 -74.5 -53.5t-103.5 -20.5q-108 0 -168.5 68.5t-60.5 188.5q0 109 60 181t153 72q96 0 152 -65t56 -178v-17h-365q4 -91 45 -143q47 -59 134 -59q47 0 91 23q37 19 55 44zM96 287h303q-7 75 -45 120t-98 45q-68 0 -112 -50q-39 -44 -48 -115z
M295 6l27 -1q-36 -21 -62 -50q-29 -33 -29 -62q0 -54 58 -54q32 0 65 26l2 -27q-36 -38 -87 -38q-40 0 -67 22.5t-27 59.5q0 38 34 71.5t86 52.5z" />
    <glyph glyph-name="section" unicode="&#xa7;" horiz-adv-x="525" 
d="M217 428q-38 -15 -60.5 -46.5t-22.5 -64.5q0 -57 62 -105t110 -67q38 15 60.5 46.5t22.5 64.5q0 55 -61 104q-53 42 -111 68zM346 114q74 -48 74 -123q0 -65 -48 -103t-122 -38q-128 0 -163 83l42 33q32 -68 120 -68q46 0 78 22q36 25 36 69q0 56 -87 111l-86 54
q-60 37 -85.5 73t-25.5 84q0 88 98 147q-74 49 -74 123q0 65 46 103t117 38q117 0 154 -87l-38 -29q-32 68 -113 68q-45 0 -75 -22q-34 -25 -34 -69q0 -57 87 -111l87 -54q59 -37 84.5 -73t25.5 -84q0 -88 -98 -147z" />
    <glyph glyph-name="dieresis" unicode="&#xa8;" horiz-adv-x="287" 
d="M57 670q23 0 30.5 -7t7.5 -36q0 -43 -38 -43q-25 0 -31.5 9t-6.5 34q0 33 13 39q8 4 25 4zM229 670q26 0 33 -10q5 -6 5 -33q0 -33 -13 -39q-8 -4 -25 -4q-26 0 -33 10q-5 6 -5 33q0 29 10 37q6 6 28 6z" />
    <glyph glyph-name="copyright" unicode="&#xa9;" horiz-adv-x="732" 
d="M114 357q0 -142 80 -228t213 -86q69 0 124.5 31.5t69.5 81.5v145h-185v52h245v-226l-12 -22q-30 -54 -100 -86q-66 -29 -145 -29q-156 0 -254 102t-98 265q0 160 97.5 262.5t249.5 102.5q77 0 144 -27q64 -27 98 -70l-26 -51q-84 95 -216 95q-125 0 -205 -87.5
t-80 -224.5zM307 -176l1 34q10 -4 20 -7q19 -7 34 -7q45 0 45 31q0 29 -37 29h-27l48 98h36l-43 -80l20 3q24 0 39.5 -15t15.5 -38q0 -59 -81 -59q-34 0 -71 11z" />
    <glyph glyph-name="ordfeminine" unicode="&#xaa;" horiz-adv-x="313" 
d="M236 513v47q-12 7 -77 9q-98 3 -98 -70q0 -56 74 -56q39 0 66.5 19.5t34.5 50.5zM238 458q-45 -45 -108 -45q-49 0 -78.5 24t-29.5 61q0 46 37 76t95 24q68 0 82 -8v38q0 68 -82 68q-45 0 -87 -33l-16 29q33 33 105 33q116 0 116 -92v-174l4 -40h-34z" />
    <glyph glyph-name="guillemotleft" unicode="&#xab;" horiz-adv-x="500" 
d="M288 270l141 -186l-55 -5l-147 189v4l147 189l55 -5zM123 270l141 -186l-55 -5l-147 189v4l147 189l55 -5z" />
    <glyph glyph-name="logicalnot" unicode="&#xac;" horiz-adv-x="506" 
d="M244 455q-57 0 -93 -38t-36 -99q0 -58 35.5 -95t92.5 -37q58 0 93.5 35.5t35.5 95.5q0 65 -34 101.5t-94 36.5zM58 320q0 78 53.5 129t132.5 51q62 0 105 -29q54 33 135 32q0 2 -1 -46q-62 0 -94 -19q39 -45 39 -120q0 -80 -52 -129.5t-135 -49.5q-29 0 -49 6
q-17 -6 -31 -14q-24 -13 -24 -35q0 -42 124 -47q210 -8 210 -134q0 -67 -62 -103q-58 -34 -160 -34q-104 0 -163 34t-59 95q0 76 108 115q-55 18 -55 66q0 52 64 77q-23 16 -33 26q-53 53 -53 129zM220 1q-76 -11 -105 -33q-32 -24 -32 -59q0 -37 40 -61q44 -25 124 -25
q71 0 116 21q51 24 51 68q0 37 -43 60t-118 26q-18 1 -33 3zM201 559l101 143l75 -2l-134 -142z" />
    <glyph glyph-name="minus" unicode="&#xad;" horiz-adv-x="498" 
d="M419 105l26 -41q-25 -33 -74.5 -53.5t-103.5 -20.5q-108 0 -168.5 68.5t-60.5 188.5q0 109 60 181t153 72q96 0 152 -65t56 -178v-17h-365q4 -91 45 -143q47 -59 134 -59q47 0 91 23q37 19 55 44zM96 287h303q-7 75 -45 120t-98 45q-68 0 -112 -50q-39 -44 -48 -115z
M254 672q25 0 31.5 -7.5t6.5 -35.5t-8 -35.5t-30 -7.5q-17 0 -24 3q-14 7 -14 40q0 27 7 35t31 8z" />
    <glyph glyph-name="minus" unicode="&#x2212;" horiz-adv-x="498" 
d="M419 105l26 -41q-25 -33 -74.5 -53.5t-103.5 -20.5q-108 0 -168.5 68.5t-60.5 188.5q0 109 60 181t153 72q96 0 152 -65t56 -178v-17h-365q4 -91 45 -143q47 -59 134 -59q47 0 91 23q37 19 55 44zM96 287h303q-7 75 -45 120t-98 45q-68 0 -112 -50q-39 -44 -48 -115z
M254 672q25 0 31.5 -7.5t6.5 -35.5t-8 -35.5t-30 -7.5q-17 0 -24 3q-14 7 -14 40q0 27 7 35t31 8z" />
    <glyph glyph-name="registered" unicode="&#xae;" horiz-adv-x="228" 
d="M144 0h-60v712h60v-712zM-20 861h273v-50h-273v50z" />
    <glyph glyph-name="macron" unicode="&#xaf;" horiz-adv-x="295" 
d="M11 657h273v-50h-273v50z" />
    <glyph glyph-name="macron" unicode="&#x2c9;" horiz-adv-x="295" 
d="M11 657h273v-50h-273v50z" />
    <glyph glyph-name="degree" unicode="&#xb0;" horiz-adv-x="218" 
d="M136 490v-490h-56v490h56zM-23 657h273v-50h-273v50z" />
    <glyph glyph-name="plusminus" unicode="&#xb1;" horiz-adv-x="228" 
d="M144 0h-60v712h60v-712zM117 6l27 -1q-36 -21 -62 -50q-29 -33 -29 -62q0 -54 58 -54q32 0 65 26l2 -27q-36 -38 -87 -38q-40 0 -67 22.5t-27 59.5q0 38 34 71.5t86 52.5z" />
    <glyph glyph-name="twosuperior" unicode="&#xb2;" horiz-adv-x="498" 
d="M419 105l26 -41q-25 -33 -74.5 -53.5t-103.5 -20.5q-108 0 -168.5 68.5t-60.5 188.5q0 109 60 181t153 72q96 0 152 -65t56 -178v-17h-365q4 -91 45 -143q47 -59 134 -59q47 0 91 23q37 19 55 44zM96 287h303q-7 75 -45 120t-98 45q-68 0 -112 -50q-39 -44 -48 -115z
M118 657h273v-50h-273v50z" />
    <glyph glyph-name="threesuperior" unicode="&#xb3;" horiz-adv-x="511" 
d="M464 0h-377v712h367v-53h-307v-262h277v-53l-277 -1v-290h317v-53zM267 876q25 0 31.5 -7.5t6.5 -35.5t-8 -35.5t-30 -7.5q-17 0 -24 3q-14 7 -14 40q0 27 7 35t31 8z" />
    <glyph glyph-name="acute" unicode="&#xb4;" horiz-adv-x="265" 
d="M77 559l101 143l75 -2l-134 -142z" />
    <glyph glyph-name="mu" unicode="&#xb5;" horiz-adv-x="218" 
d="M76 662q0 28 5 35t27 7q23 0 29 -10q3 -6 3 -32q0 -25 -3 -31q-6 -11 -29 -11q-22 0 -27 7t-5 35zM136 490v-490h-56v490h56zM108 6l27 -1q-36 -21 -62 -50q-29 -33 -29 -62q0 -54 58 -54q32 0 65 26l2 -27q-36 -38 -87 -38q-40 0 -67 22.5t-27 59.5q0 38 34 71.5
t86 52.5z" />
    <glyph glyph-name="mu" unicode="&#x3bc;" horiz-adv-x="218" 
d="M76 662q0 28 5 35t27 7q23 0 29 -10q3 -6 3 -32q0 -25 -3 -31q-6 -11 -29 -11q-22 0 -27 7t-5 35zM136 490v-490h-56v490h56zM108 6l27 -1q-36 -21 -62 -50q-29 -33 -29 -62q0 -54 58 -54q32 0 65 26l2 -27q-36 -38 -87 -38q-40 0 -67 22.5t-27 59.5q0 38 34 71.5
t86 52.5z" />
    <glyph glyph-name="paragraph" unicode="&#xb6;" horiz-adv-x="595" 
d="M491 669v-806h-58v803h-117v-803h-58v468q-90 0 -146.5 55t-56.5 141q0 90 58.5 141t160.5 51h260v-50h-43z" />
    <glyph glyph-name="periodcentered" unicode="&#xb7;" horiz-adv-x="285" 
d="M132 341q24 0 31.5 -9t7.5 -35q0 -44 -39 -44q-26 0 -33 10q-6 7 -6 34q0 26 7.5 35t31.5 9z" />
    <glyph glyph-name="periodcentered" unicode="&#x2219;" horiz-adv-x="285" 
d="M132 341q24 0 31.5 -9t7.5 -35q0 -44 -39 -44q-26 0 -33 10q-6 7 -6 34q0 26 7.5 35t31.5 9z" />
    <glyph glyph-name="cedilla" unicode="&#xb8;" horiz-adv-x="262" 
d="M46 -176l1 34q10 -4 20 -7q19 -7 34 -7q45 0 45 31q0 29 -37 29h-27l48 98h36l-43 -80l20 3q24 0 39.5 -15t15.5 -38q0 -59 -81 -59q-34 0 -71 11z" />
    <glyph glyph-name="onesuperior" unicode="&#xb9;" horiz-adv-x="511" 
d="M464 0h-377v712h367v-53h-307v-262h277v-53l-277 -1v-290h317v-53zM131 861h273v-50h-273v50z" />
    <glyph glyph-name="ordmasculine" unicode="&#xba;" horiz-adv-x="341" 
d="M328 569q0 -69 -42.5 -112t-112.5 -43t-113 43t-43 112q0 70 43 113t113 43t112.5 -43t42.5 -113zM289 569q0 56 -32.5 91.5t-83.5 35.5q-52 0 -84.5 -35.5t-32.5 -91.5q0 -55 32.5 -90.5t84.5 -35.5q51 0 83.5 35.5t32.5 90.5z" />
    <glyph glyph-name="guillemotright" unicode="&#xbb;" horiz-adv-x="500" 
d="M376 270l-139 186l55 5l145 -189v-4l-145 -189l-55 5zM211 270l-139 186l55 5l145 -189v-4l-145 -189l-55 5z" />
    <glyph glyph-name="onequarter" unicode="&#xbc;" horiz-adv-x="486" 
d="M356 152v86q-27 10 -100 10q-77 0 -121 -35q-40 -33 -40 -84q0 -42 28.5 -67t82.5 -25q58 0 100 34q40 31 50 81zM359 63q-65 -74 -161 -74q-73 0 -116.5 39t-43.5 100q0 74 56.5 118.5t155.5 44.5q62 0 106 -9v59q0 112 -121 112q-81 0 -141 -52l-18 42q21 21 63 38
q48 19 99 19q173 0 173 -151v-280l6 -74h-52q-6 34 -6 68zM247 567q-111 0 -134 115h37q23 -64 97 -64t97 64h37q-23 -115 -134 -115z" />
    <glyph glyph-name="onehalf" unicode="&#xbd;" horiz-adv-x="650" 
d="M468 273l-143 367l-144 -367h287zM636 0h-62l-86 220h-328l-86 -220h-61l286 719h55zM603 6l27 -1q-36 -21 -62 -50q-29 -33 -29 -62q0 -54 58 -54q32 0 65 26l2 -27q-36 -38 -87 -38q-40 0 -67 22.5t-27 59.5q0 38 34 71.5t86 52.5z" />
    <glyph glyph-name="threequarters" unicode="&#xbe;" horiz-adv-x="486" 
d="M356 152v86q-27 10 -100 10q-77 0 -121 -35q-40 -33 -40 -84q0 -42 28.5 -67t82.5 -25q58 0 100 34q40 31 50 81zM359 63q-65 -74 -161 -74q-73 0 -116.5 39t-43.5 100q0 74 56.5 118.5t155.5 44.5q62 0 106 -9v59q0 112 -121 112q-81 0 -141 -52l-18 42q21 21 63 38
q48 19 99 19q173 0 173 -151v-280l6 -74h-52q-6 34 -6 68zM359 6l27 -1q-36 -21 -62 -50q-29 -33 -29 -62q0 -54 58 -54q32 0 65 26l2 -27q-36 -38 -87 -38q-40 0 -67 22.5t-27 59.5q0 38 34 71.5t86 52.5z" />
    <glyph glyph-name="questiondown" unicode="&#xbf;" horiz-adv-x="430" 
d="M225 -231q-83 0 -129 50q-43 46 -43 118q0 53 48 114q10 14 85 91q36 38 36 76q0 30 -21 66q3 1 46 30q34 -48 34 -96q0 -63 -59 -118q-35 -37 -69 -73q-41 -49 -41 -92q0 -51 31.5 -82.5t84.5 -31.5q37 0 70 21q30 19 43 45q7 -14 28 -41q-14 -29 -53 -52
q-43 -25 -91 -25zM234 407q-28 0 -34 6t-6 37q0 34 5 39t34 5q30 0 35 -6t5 -37q0 -28 -6 -36t-33 -8z" />
    <glyph glyph-name="Agrave" unicode="&#xc0;" horiz-adv-x="586" 
d="M149 0h-60v712h60v-343l331 343h79l-323 -329l350 -383h-78l-311 344l-48 -51v-293zM39 -176l1 34q10 -4 20 -7q19 -7 34 -7q45 0 45 31q0 29 -37 29h-27l48 98h36l-43 -80l20 3q24 0 39.5 -15t15.5 -38q0 -59 -81 -59q-34 0 -71 11z" />
    <glyph glyph-name="Aacute" unicode="&#xc1;" horiz-adv-x="470" 
d="M431 490l-222 -212l260 -278h-73l-234 246l-30 -30l1 -216h-58v746h56l-1 -476l231 220h70zM19 -176l1 34q10 -4 20 -7q19 -7 34 -7q45 0 45 31q0 29 -37 29h-27l48 98h36l-43 -80l20 3q24 0 39.5 -15t15.5 -38q0 -59 -81 -59q-34 0 -71 11z" />
    <glyph glyph-name="Acircumflex" unicode="&#xc2;" horiz-adv-x="436" 
d="M143 712v-659h282v-51l-342 -2v712h60zM100 763l101 143l75 -2l-134 -142z" />
    <glyph glyph-name="Atilde" unicode="&#xc3;" horiz-adv-x="210" 
d="M76 746h56l-1 -746h-55v746zM59 780l101 143l75 -2l-134 -142z" />
    <glyph glyph-name="Adieresis" unicode="&#xc4;" horiz-adv-x="673" 
d="M0 291v40h50q-1 8 -1 25q0 25 1 37h-50v45h56q25 127 118 205.5t224 78.5q133 0 210 -83l-15 -54q-78 84 -198 84q-105 0 -179 -63t-97 -168h383v-45h-389q-2 -24 -2 -37q0 -17 1 -25h392v-40h-388q18 -113 94 -180.5t187 -67.5q130 0 201 85l18 -54q-84 -84 -214 -84
q-140 0 -234.5 82.5t-114.5 218.5h-53z" />
    <glyph glyph-name="Aring" unicode="&#xc5;" horiz-adv-x="210" 
d="M76 746h56l-1 -746h-55v746zM16 -176l1 34q10 -4 20 -7q19 -7 34 -7q45 0 45 31q0 29 -37 29h-27l48 98h36l-43 -80l20 3q24 0 39.5 -15t15.5 -38q0 -59 -81 -59q-34 0 -71 11z" />
    <glyph glyph-name="AE" unicode="&#xc6;" horiz-adv-x="906" 
d="M452 663l-214 -373h234v373h-20zM472 238h-264l-140 -238h-67l418 713l8 -1h405v-53h-300v-262h271v-53l-271 -1v-290h310v-53h-370v238z" />
    <glyph glyph-name="Ccedilla" unicode="&#xc7;" horiz-adv-x="737" 
d="M594 91v621h60v-717h-58l-2 5l-451 630v-630h-60v718h65q74 -109 223.5 -314t222.5 -313zM314 763l101 143l75 -2l-134 -142z" />
    <glyph glyph-name="Egrave" unicode="&#xc8;" horiz-adv-x="528" 
d="M451 314v-314h-56v308q0 144 -114 144q-119 0 -150 -152v-300h-56v490h53v-86q58 96 159 96q164 0 164 -186zM208 559l101 143l75 -2l-134 -142z" />
    <glyph glyph-name="Eacute" unicode="&#xc9;" horiz-adv-x="737" 
d="M594 91v621h60v-717h-58l-2 5l-451 630v-630h-60v718h65q74 -109 223.5 -314t222.5 -313zM33 -176l1 34q10 -4 20 -7q19 -7 34 -7q45 0 45 31q0 29 -37 29h-27l48 98h36l-43 -80l20 3q24 0 39.5 -15t15.5 -38q0 -59 -81 -59q-34 0 -71 11z" />
    <glyph glyph-name="Ecircumflex" unicode="&#xca;" horiz-adv-x="528" 
d="M451 314v-314h-56v308q0 144 -114 144q-119 0 -150 -152v-300h-56v490h53v-86q58 96 159 96q164 0 164 -186zM24 -176l1 34q10 -4 20 -7q19 -7 34 -7q45 0 45 31q0 29 -37 29h-27l48 98h36l-43 -80l20 3q24 0 39.5 -15t15.5 -38q0 -59 -81 -59q-34 0 -71 11z" />
    <glyph glyph-name="Edieresis" unicode="&#xcb;" horiz-adv-x="760" 
d="M647 356q0 135 -76 224t-193 89t-192.5 -89t-75.5 -224q0 -136 75.5 -224.5t192.5 -88.5t193 88.5t76 224.5zM709 356q0 -162 -92 -264t-239 -102t-238.5 102t-91.5 264t91.5 264t238.5 102t239 -102t92 -264zM247 861h273v-50h-273v50z" />
    <glyph glyph-name="Igrave" unicode="&#xcc;" horiz-adv-x="540" 
d="M502 245q0 -114 -64 -184.5t-168 -70.5t-168 70.5t-64 184.5t64 184.5t168 70.5t168 -70.5t64 -184.5zM444 245q0 91 -48.5 149t-125.5 58t-125.5 -58t-48.5 -149t48.5 -149t125.5 -58t125.5 58t48.5 149zM136 657h273v-50h-273v50z" />
    <glyph glyph-name="Iacute" unicode="&#xcd;" horiz-adv-x="567" 
d="M147 334v-334h-60v712h178q105 0 161 -48t56 -139q0 -69 -41 -114q-43 -49 -121 -61q37 -25 92 -124l126 -226h-67l-117 209q-33 59 -49 78q-28 34 -69 47h-89zM147 387h103q79 0 124.5 37t45.5 103q0 132 -166 132h-107v-272zM203 763l101 143l75 -2l-134 -142z" />
    <glyph glyph-name="Icircumflex" unicode="&#xce;" horiz-adv-x="321" 
d="M132 268v-268h-56v490h54v-94q47 104 136 104q25 0 54 -17l-18 -49q-1 3 -16.5 7t-25.5 4q-54 0 -91 -51.5t-37 -125.5zM137 559l101 143l75 -2l-134 -142z" />
    <glyph glyph-name="Idieresis" unicode="&#xcf;" horiz-adv-x="567" 
d="M147 334v-334h-60v712h178q105 0 161 -48t56 -139q0 -69 -41 -114q-43 -49 -121 -61q37 -25 92 -124l126 -226h-67l-117 209q-33 59 -49 78q-28 34 -69 47h-89zM147 387h103q79 0 124.5 37t45.5 103q0 132 -166 132h-107v-272zM36 -176l1 34q10 -4 20 -7q19 -7 34 -7
q45 0 45 31q0 29 -37 29h-27l48 98h36l-43 -80l20 3q24 0 39.5 -15t15.5 -38q0 -59 -81 -59q-34 0 -71 11z" />
    <glyph glyph-name="Eth" unicode="&#xd0;" horiz-adv-x="321" 
d="M132 268v-268h-56v490h54v-94q47 104 136 104q25 0 54 -17l-18 -49q-1 3 -16.5 7t-25.5 4q-54 0 -91 -51.5t-37 -125.5zM19 -176l1 34q10 -4 20 -7q19 -7 34 -7q45 0 45 31q0 29 -37 29h-27l48 98h36l-43 -80l20 3q24 0 39.5 -15t15.5 -38q0 -59 -81 -59q-34 0 -71 11z
" />
    <glyph glyph-name="Ntilde" unicode="&#xd1;" horiz-adv-x="514" 
d="M465 186q0 -84 -62.5 -140t-156.5 -56q-137 0 -200 88l27 57q23 -39 67 -64q48 -28 104 -28q69 0 114.5 41t45.5 103q0 54 -43 92q-35 31 -118 65q-90 37 -132 77q-51 49 -51 119q0 79 58.5 130.5t147.5 51.5q54 0 103 -20.5t70 -50.5l-26 -49q-50 67 -147 67
q-63 0 -103.5 -36t-40.5 -94q0 -46 44 -83q36 -30 118 -65q96 -41 135 -82q46 -48 46 -123zM197 763l101 143l75 -2l-134 -142z" />
    <glyph glyph-name="Ograve" unicode="&#xd2;" horiz-adv-x="390" 
d="M353 132q0 -63 -47 -103t-122 -40q-46 0 -88.5 17.5t-63.5 47.5l20 43q44 -59 134 -59q47 0 79 26t32 66q0 37 -27.5 60t-90.5 45q-133 46 -133 135q0 59 43 94.5t108 35.5q41 0 79 -15t57 -37l-25 -43q-43 48 -109 48q-46 0 -72.5 -23t-26.5 -59q0 -53 112 -92
q72 -25 105 -57q36 -36 36 -90zM136 559l101 143l75 -2l-134 -142z" />
    <glyph glyph-name="Oacute" unicode="&#xd3;" horiz-adv-x="516" 
d="M288 0h-60v659h-216v53h492v-53h-216v-659zM170 -176l1 34q10 -4 20 -7q19 -7 34 -7q45 0 45 31q0 29 -37 29h-27l48 98h36l-43 -80l20 3q24 0 39.5 -15t15.5 -38q0 -59 -81 -59q-34 0 -71 11z" />
    <glyph glyph-name="Ocircumflex" unicode="&#xd4;" horiz-adv-x="289" 
d="M157 96q0 -58 51 -58q26 0 52 12v-47q-36 -11 -70 -11q-89 0 -89 97v353h-89v47h89v138l56 17v-155h110v-47h-110v-346zM103 -176l1 34q10 -4 20 -7q19 -7 34 -7q45 0 45 31q0 29 -37 29h-27l48 98h36l-43 -80l20 3q24 0 39.5 -15t15.5 -38q0 -59 -81 -59q-34 0 -71 11z
" />
    <glyph glyph-name="Otilde" unicode="&#xd5;" horiz-adv-x="683" 
d="M543 255v457h60v-460q0 -121 -70.5 -191.5t-190.5 -70.5q-121 0 -191.5 69.5t-70.5 189.5v463h60v-459q0 -100 53 -155t149 -55q95 0 148 56t53 156zM209 861h273v-50h-273v50z" />
    <glyph glyph-name="Odieresis" unicode="&#xd6;" horiz-adv-x="524" 
d="M450 490v-495h-44v105q-45 -110 -163 -110q-169 0 -169 182v318h56v-307q0 -145 119 -145q59 0 99 40.5t46 98.5v313h56zM129 657h273v-50h-273v50z" />
    <glyph glyph-name="multiply" unicode="&#xd7;" horiz-adv-x="683" 
d="M543 255v457h60v-460q0 -121 -70.5 -191.5t-190.5 -70.5q-121 0 -191.5 69.5t-70.5 189.5v463h60v-459q0 -100 53 -155t149 -55q95 0 148 56t53 156zM342 935q38 0 65.5 -27.5t27.5 -65.5t-27.5 -65.5t-65.5 -27.5q-39 0 -66 27.5t-27 65.5t27 65.5t66 27.5zM342 900
q-25 0 -41.5 -17t-16.5 -41t16.5 -41t41.5 -17q24 0 41 17t17 41t-17 41t-41 17z" />
    <glyph glyph-name="Oslash" unicode="&#xd8;" horiz-adv-x="760" 
d="M584 564l-382 -451q69 -70 176 -70q117 0 193 88.5t76 224.5q0 126 -63 208zM171 149l382 450q-67 70 -175 70q-117 0 -192.5 -89t-75.5 -224q0 -125 61 -207zM668 735l40 -25l-84 -99q85 -97 85 -255q0 -162 -92 -264t-239 -102q-132 0 -215 78l-75 -89l-40 25l83 98
q-83 98 -83 254q0 162 91.5 264t238.5 102q131 0 214 -77z" />
    <glyph glyph-name="Ugrave" unicode="&#xd9;" horiz-adv-x="524" 
d="M450 490v-495h-44v105q-45 -110 -163 -110q-169 0 -169 182v318h56v-307q0 -145 119 -145q59 0 99 40.5t46 98.5v313h56zM262 731q38 0 65.5 -27.5t27.5 -65.5t-27.5 -65.5t-65.5 -27.5q-39 0 -66 27.5t-27 65.5t27 65.5t66 27.5zM262 696q-25 0 -41.5 -17t-16.5 -41
t16.5 -41t41.5 -17q24 0 41 17t17 41t-17 41t-41 17z" />
    <glyph glyph-name="Uacute" unicode="&#xda;" horiz-adv-x="683" 
d="M543 255v457h60v-460q0 -121 -70.5 -191.5t-190.5 -70.5q-121 0 -191.5 69.5t-70.5 189.5v463h60v-459q0 -100 53 -155t149 -55q95 0 148 56t53 156zM379 6l27 -1q-36 -21 -62 -50q-29 -33 -29 -62q0 -54 58 -54q32 0 65 26l2 -27q-36 -38 -87 -38q-40 0 -67 22.5
t-27 59.5q0 38 34 71.5t86 52.5z" />
    <glyph glyph-name="Ucircumflex" unicode="&#xdb;" horiz-adv-x="524" 
d="M450 490v-495h-44v105q-45 -110 -163 -110q-169 0 -169 182v318h56v-307q0 -145 119 -145q59 0 99 40.5t46 98.5v313h56zM399 6l27 -1q-36 -21 -62 -50q-29 -33 -29 -62q0 -54 58 -54q32 0 65 26l2 -27q-36 -38 -87 -38q-40 0 -67 22.5t-27 59.5q0 38 34 71.5t86 52.5z
" />
    <glyph glyph-name="Udieresis" unicode="&#xdc;" horiz-adv-x="553" 
d="M523 53v-53h-500l-1 37l417 622h-394l1 53h472l1 -39l-417 -620h421zM217 763l101 143l75 -2l-134 -142z" />
    <glyph glyph-name="Yacute" unicode="&#xdd;" horiz-adv-x="442" 
d="M45 490h372l1 -31l-320 -411h322v-48h-401v31l323 411h-297v48zM162 559l101 143l75 -2l-134 -142z" />
    <glyph glyph-name="Thorn" unicode="&#xde;" horiz-adv-x="553" 
d="M523 53v-53h-500l-1 37l417 622h-394l1 53h472l1 -39l-417 -620h421zM275 876q25 0 31.5 -7.5t6.5 -35.5t-8 -35.5t-30 -7.5q-17 0 -24 3q-14 7 -14 40q0 27 7 35t31 8z" />
    <glyph glyph-name="germandbls" unicode="&#xdf;" horiz-adv-x="529" 
d="M129 535v-535h-55v550q0 102 52 155q48 50 133 50q80 0 129 -48t49 -126q0 -119 -109 -157q74 -14 117 -68t43 -134q0 -96 -57 -161q-61 -69 -157 -69q-40 0 -64 11l9 47q23 -10 57 -10q68 0 111 55q42 51 42 126q0 80 -45 126.5t-131 46.5h-13v48h12q57 0 91.5 38.5
t34.5 99.5q0 62 -37 97q-33 31 -87 31q-125 0 -125 -173z" />
    <glyph glyph-name="agrave" unicode="&#xe0;" horiz-adv-x="442" 
d="M45 490h372l1 -31l-320 -411h322v-48h-401v31l323 411h-297v48zM220 672q25 0 31.5 -7.5t6.5 -35.5t-8 -35.5t-30 -7.5q-17 0 -24 3q-14 7 -14 40q0 27 7 35t31 8z" />
    <glyph glyph-name="aacute" unicode="&#xe1;" horiz-adv-x="679" 
d="M144 396h204v-52h-204v-291h106q147 0 230 80t83 222q0 144 -77.5 224t-217.5 80h-124v-263zM1 396h83v318l190 -2q165 -2 258 -96t93 -261q0 -166 -98.5 -260.5t-274.5 -94.5h-168v344h-83v52z" />
    <glyph glyph-name="acircumflex" unicode="&#xe2;" horiz-adv-x="285" 
d="M132 341q20 0 27 -5q12 -7 12 -39q0 -31 -12 -39q-8 -5 -27 -5q-25 0 -32 9.5t-7 34.5q0 38 18 42q7 2 21 2z" />
    <glyph glyph-name="atilde" unicode="&#xe3;" horiz-adv-x="673" 
d="M0 288v43h50q-1 8 -1 25q0 25 1 37h-50v45h56q25 127 118 205.5t224 78.5q138 0 218 -86l-23 -51q-78 84 -198 84q-105 0 -179 -63t-97 -168h383v-45h-389q-2 -24 -2 -37q0 -17 1 -25h392v-43h-388q18 -112 94 -178.5t187 -66.5q130 0 196 80l23 -49q-84 -84 -214 -84
q-140 0 -234.5 81t-114.5 217h-53z" />
    <glyph glyph-name="adieresis" unicode="&#xe4;" horiz-adv-x="673" 
d="M111 356q0 -138 79.5 -225.5t206.5 -87.5q130 0 201 85l14 -50q-80 -88 -210 -88q-157 0 -255 102t-98 264q0 159 98.5 262.5t250.5 103.5q138 0 214 -82l-19 -55q-78 84 -198 84q-126 0 -205 -87.5t-79 -225.5zM252 903h45l93 -98l93 98h45l-110 -145h-56z" />
    <glyph glyph-name="aring" unicode="&#xe5;" horiz-adv-x="679" 
d="M563 355q0 144 -77.5 224t-217.5 80h-124v-606h106q147 0 230 80t83 222zM84 712h190q165 0 258 -95t93 -262q0 -166 -98.5 -260.5t-274.5 -94.5h-168v712zM158 903h45l93 -98l93 98h45l-110 -145h-56z" />
    <glyph glyph-name="ae" unicode="&#xe6;" horiz-adv-x="791" 
d="M349 152v81q-12 17 -55 17q-2 0 -35 -3q-168 -15 -168 -118q0 -92 110 -92q58 0 99 34q39 31 49 81zM390 410q59 90 163 90q90 0 142.5 -66t54.5 -177l-2 -17h-348q3 -89 41 -142q45 -60 130 -60q43 0 88 26q37 21 55 47l18 -46q-25 -33 -73.5 -54t-102.5 -21
q-116 0 -174 97q-57 -98 -193 -98q-71 0 -113 39t-42 100q0 144 210 163q34 3 48 3q26 0 57 -3v50q0 112 -119 112q-81 0 -145 -55l-9 48q20 21 61 36q46 18 97 18q122 0 156 -90zM402 287h286q-4 75 -40 120t-95 45q-66 0 -107 -51q-36 -45 -44 -114z" />
    <glyph glyph-name="ccedilla" unicode="&#xe7;" horiz-adv-x="511" 
d="M464 0h-377v712h367v-53h-307v-262h277v-53l-277 -1v-290h317v-53zM131 903h45l93 -98l93 98h45l-110 -145h-56z" />
    <glyph glyph-name="egrave" unicode="&#xe8;" horiz-adv-x="436" 
d="M143 712v-659h282v-51l-342 -2v712h60zM332 711h35q12 0 12 -11q-1 -38 -60 -182q-19 -24 -48 -28l11 37q28 94 28 134v22q0 28 22 28z" />
    <glyph glyph-name="eacute" unicode="&#xe9;" horiz-adv-x="436" 
d="M143 712v-659h282v-51l-342 -2v712h60zM296 393q25 0 31.5 -7.5t6.5 -35.5t-8 -35.5t-30 -7.5q-17 0 -24 3q-14 7 -14 40q0 27 7 35t31 8z" />
    <glyph glyph-name="ecircumflex" unicode="&#xea;" horiz-adv-x="737" 
d="M594 91v621h60v-717h-58l-2 5l-451 630v-630h-60v718h65q74 -109 223.5 -314t222.5 -313zM236 903h45l93 -98l93 98h45l-110 -145h-56z" />
    <glyph glyph-name="edieresis" unicode="&#xeb;" horiz-adv-x="760" 
d="M647 356q0 135 -76 224t-193 89t-192.5 -89t-75.5 -224q0 -136 75.5 -224.5t192.5 -88.5t193 88.5t76 224.5zM709 356q0 -162 -92 -264t-239 -102t-238.5 102t-91.5 264t91.5 264t238.5 102t239 -102t92 -264zM259 762l97 144l76 -2l-130 -142h-43zM404 762l97 144l76 -2
l-130 -142h-43z" />
    <glyph glyph-name="igrave" unicode="&#xec;" horiz-adv-x="567" 
d="M147 334v-334h-60v712h178q105 0 161 -48t56 -139q0 -69 -41 -114q-43 -49 -121 -61q37 -25 92 -124l126 -226h-67l-117 209q-33 59 -49 78q-28 34 -69 47h-89zM147 387h103q79 0 124.5 37t45.5 103q0 132 -166 132h-107v-272zM125 903h45l93 -98l93 98h45l-110 -145h-56
z" />
    <glyph glyph-name="iacute" unicode="&#xed;" horiz-adv-x="516" 
d="M288 0h-60v659h-216v53h492v-53h-216v-659zM123 903h45l93 -98l93 98h45l-110 -145h-56z" />
    <glyph glyph-name="icircumflex" unicode="&#xee;" horiz-adv-x="683" 
d="M543 255v457h60v-460q0 -121 -70.5 -191.5t-190.5 -70.5q-121 0 -191.5 69.5t-70.5 189.5v463h60v-459q0 -100 53 -155t149 -55q95 0 148 56t53 156zM221 762l97 144l76 -2l-130 -142h-43zM366 762l97 144l76 -2l-130 -142h-43z" />
    <glyph glyph-name="idieresis" unicode="&#xef;" horiz-adv-x="456" 
d="M410 92l12 -50q-57 -52 -148 -52q-108 0 -172 69.5t-64 185.5q0 114 65.5 184.5t172.5 70.5q87 0 141 -52l-13 -50q-52 54 -126 54q-83 0 -132.5 -56t-49.5 -149t50 -151t132 -58q38 0 77 17q36 15 55 37zM130 699h45l93 -98l93 98h45l-110 -145h-56z" />
    <glyph glyph-name="eth" unicode="&#xf0;" horiz-adv-x="563" 
d="M287 637h131v109h56v-109h65v-49h-65v-588h-52l-2 71q-58 -81 -158 -81q-101 0 -160.5 69.5t-59.5 184.5q0 117 58.5 186.5t159.5 69.5q100 0 158 -82v170h-131v49zM418 191v110q-7 64 -50.5 107.5t-103.5 43.5q-75 0 -119.5 -57t-44.5 -151q0 -93 45 -149.5t121 -56.5
q62 0 104 44t48 109z" />
    <glyph glyph-name="ntilde" unicode="&#xf1;" horiz-adv-x="644" 
d="M420 71q-58 -81 -158 -81q-101 0 -160.5 69.5t-59.5 184.5q0 117 58.5 186.5t159.5 69.5q100 0 158 -82v328h56v-746h-52zM418 191v110q-7 64 -50.5 107.5t-103.5 43.5q-75 0 -119.5 -57t-44.5 -151q0 -93 45 -149.5t121 -56.5q62 0 104 44t48 109zM603 730h35
q12 0 12 -11q-1 -38 -60 -182q-19 -24 -48 -28l11 37q28 94 28 134v22q0 28 22 28z" />
    <glyph glyph-name="ograve" unicode="&#xf2;" horiz-adv-x="498" 
d="M419 105l26 -41q-25 -33 -74.5 -53.5t-103.5 -20.5q-108 0 -168.5 68.5t-60.5 188.5q0 109 60 181t153 72q96 0 152 -65t56 -178v-17h-365q4 -91 45 -143q47 -59 134 -59q47 0 91 23q37 19 55 44zM96 287h303q-7 75 -45 120t-98 45q-68 0 -112 -50q-39 -44 -48 -115z
M118 699h45l93 -98l93 98h45l-110 -145h-56z" />
    <glyph glyph-name="oacute" unicode="&#xf3;" horiz-adv-x="309" 
d="M76 746h56l-1 -746h-55v746zM268 730h35q12 0 12 -11q-1 -38 -60 -182q-19 -24 -48 -28l11 37q28 94 28 134v22q0 28 22 28z" />
    <glyph glyph-name="ocircumflex" unicode="&#xf4;" horiz-adv-x="289" 
d="M76 746h56l-1 -746h-55v746zM239 393q25 0 31.5 -7.5t6.5 -35.5t-8 -35.5t-30 -7.5q-17 0 -24 3q-14 7 -14 40q0 27 7 35t31 8z" />
    <glyph glyph-name="otilde" unicode="&#xf5;" horiz-adv-x="528" 
d="M451 314v-314h-56v308q0 144 -114 144q-119 0 -150 -152v-300h-56v490h53v-86q58 96 159 96q164 0 164 -186zM130 699h45l93 -98l93 98h45l-110 -145h-56z" />
    <glyph glyph-name="odieresis" unicode="&#xf6;" horiz-adv-x="540" 
d="M502 245q0 -114 -64 -184.5t-168 -70.5t-168 70.5t-64 184.5t64 184.5t168 70.5t168 -70.5t64 -184.5zM444 245q0 91 -48.5 149t-125.5 58t-125.5 -58t-48.5 -149t48.5 -149t125.5 -58t125.5 58t48.5 149zM148 558l97 144l76 -2l-130 -142h-43zM293 558l97 144l76 -2
l-130 -142h-43z" />
    <glyph glyph-name="divide" unicode="&#xf7;" horiz-adv-x="321" 
d="M132 268v-268h-56v490h54v-94q47 104 136 104q25 0 54 -17l-18 -49q-1 3 -16.5 7t-25.5 4q-54 0 -91 -51.5t-37 -125.5zM59 699h45l93 -98l93 98h45l-110 -145h-56z" />
    <glyph glyph-name="oslash" unicode="&#xf8;" horiz-adv-x="540" 
d="M477 528l36 -23l-69 -83q58 -67 58 -177q0 -114 -64 -184.5t-168 -70.5q-89 0 -145 48l-63 -76l-36 22l69 84q-57 68 -57 177q0 114 64 184.5t168 70.5q89 0 144 -48zM407 378l-247 -298q44 -42 110 -42q77 0 125.5 58t48.5 149q0 81 -37 133zM132 112l248 298
q-43 42 -110 42q-77 0 -125.5 -58t-48.5 -149q0 -80 36 -133z" />
    <glyph glyph-name="ugrave" unicode="&#xf9;" horiz-adv-x="408" 
d="M157 96q0 -58 51 -58q26 0 52 12v-47q-36 -11 -70 -11q-89 0 -89 97v353h-89v47h89v138l56 17v-155h110v-47h-110v-346zM366 711h35q12 0 12 -11q-1 -38 -60 -182q-19 -24 -48 -28l11 37q28 94 28 134v22q0 28 22 28z" />
    <glyph glyph-name="uacute" unicode="&#xfa;" horiz-adv-x="524" 
d="M138 559l97 146l76 -5l-130 -145zM283 559l97 146l76 -5l-130 -145zM450 490v-495h-43l-1 105q-45 -110 -163 -110q-169 0 -169 182v318h56v-307q0 -145 119 -145q59 0 99 40.5t46 98.5v313h56z" />
    <glyph glyph-name="ucircumflex" unicode="&#xfb;" horiz-adv-x="570" 
d="M285 526q-78 0 -133 -55t-55 -132t55 -132t132 -55q78 0 133 55t55 132t-55 132t-132 55zM527 339q0 -85 -55 -149l56 -55l-40 -39l-55 55q-64 -54 -149 -54q-88 0 -148 54l-56 -55l-39 39l55 55q-54 66 -54 149q0 85 54 149l-55 55l39 39l56 -55q62 54 148 54t149 -54
l56 55l39 -39l-56 -55q55 -66 55 -149z" />
    <glyph glyph-name="udieresis" unicode="&#xfc;" horiz-adv-x="570" 
d="M285 526q-78 0 -133 -55t-55 -132t55 -132t132 -55q78 0 133 55t55 132t-55 132t-132 55zM527 339q0 -85 -55 -149l56 -55l-40 -39l-55 55q-64 -54 -149 -54q-88 0 -148 54l-56 -55l-39 39l55 55q-54 66 -54 149q0 85 54 149l-55 55l39 39l56 -55q62 54 148 54t149 -54
l56 55l39 -39l-56 -55q55 -66 55 -149z" />
    <glyph glyph-name="dotlessi" unicode="&#x131;" horiz-adv-x="218" 
d="M136 490v-490h-56v490h56z" />
    <glyph glyph-name="Lslash" unicode="&#x141;" horiz-adv-x="436" 
d="M304 494v-61l-160 -109v-271h282v-51l-342 -2v283l-85 -58v61l85 58v368h60v-327z" />
    <glyph glyph-name="lslash" unicode="&#x142;" horiz-adv-x="216" 
d="M4 334l76 58v354h56v-311l77 59v-61l-77 -59v-374h-56v331l-76 -58v61z" />
    <glyph glyph-name="OE" unicode="&#x152;" horiz-adv-x="977" 
d="M386 666q-126 0 -202 -85.5t-76 -224.5q0 -143 74.5 -226.5t203.5 -83.5q68 0 114.5 31t46.5 76v406q0 45 -46.5 76t-114.5 31zM547 0v42q-93 -48 -173 -48q-150 0 -239 99.5t-89 264.5q0 159 91 259.5t236 100.5q112 0 174 -47v41h364v-53h-305v-262h276v-53l-276 -1
v-290h315v-53h-374z" />
    <glyph glyph-name="oe" unicode="&#x153;" horiz-adv-x="878" 
d="M431 245q0 91 -46.5 149t-121.5 58t-122 -58t-47 -149t47 -149t122 -58t121.5 58t46.5 149zM459 101q-64 -111 -199 -111q-102 0 -163 70t-61 185q0 114 62 184.5t164 70.5q141 0 196 -112q61 112 183 112q90 0 142 -65.5t54 -177.5l-2 -17h-348q3 -89 42 -142
q45 -60 130 -60q43 0 88 26q37 21 55 47l18 -46q-25 -33 -71 -54t-98 -21q-136 0 -192 111zM489 287h287q-4 75 -40 120t-95 45q-67 0 -108 -51q-36 -44 -44 -114z" />
    <glyph glyph-name="florin" unicode="&#x192;" horiz-adv-x="570" 
d="M462 744q44 0 68 -14l-16 -47q-26 10 -48 10q-41 0 -62 -27q-24 -30 -39 -112l-18 -96h111l1 -49h-120l-81 -422q-19 -100 -55.5 -139.5t-102.5 -39.5q-21 0 -65 11l12 50l53 -10q44 0 68 36q19 31 33 103l78 411h-97v49h106l22 116q32 170 152 170z" />
    <glyph glyph-name="circumflex" unicode="&#x2c6;" horiz-adv-x="288" 
d="M6 561l110 139h56l110 -139l-45 -6l-93 98l-93 -98z" />
    <glyph glyph-name="caron" unicode="&#x2c7;" horiz-adv-x="288" 
d="M6 699h45l93 -98l93 98h45l-110 -145h-56z" />
    <glyph glyph-name="breve" unicode="&#x2d8;" horiz-adv-x="290" 
d="M144 567q-111 0 -134 115h37q23 -64 97 -64t97 64h37q-23 -115 -134 -115z" />
    <glyph glyph-name="dotaccent" unicode="&#x2d9;" horiz-adv-x="265" 
d="M132 672q25 0 31.5 -7.5t6.5 -35.5t-8 -35.5t-30 -7.5q-17 0 -24 3q-14 7 -14 40q0 27 7 35t31 8z" />
    <glyph glyph-name="ring" unicode="&#x2da;" horiz-adv-x="267" 
d="M134 731q38 0 65.5 -27.5t27.5 -65.5t-27.5 -65.5t-65.5 -27.5q-39 0 -66 27.5t-27 65.5t27 65.5t66 27.5zM134 696q-25 0 -41.5 -17t-16.5 -41t16.5 -41t41.5 -17q24 0 41 17t17 41t-17 41t-41 17z" />
    <glyph glyph-name="ogonek" unicode="&#x2db;" horiz-adv-x="266" 
d="M187 6l27 -1q-36 -21 -62 -50q-29 -33 -29 -62q0 -54 58 -54q32 0 65 26l2 -27q-36 -38 -87 -38q-40 0 -67 22.5t-27 59.5q0 38 34 71.5t86 52.5z" />
    <glyph glyph-name="tilde" unicode="&#x2dc;" horiz-adv-x="291" 
d="M293 671q-15 -88 -82 -88q-25 0 -69 19t-67 19q-32 0 -43 -38h-35q15 88 82 88q25 0 69 -19t67 -19q30 0 41 38h37z" />
    <glyph glyph-name="hungarumlaut" unicode="&#x2dd;" horiz-adv-x="293" 
d="M59 558l97 144l76 -2l-130 -142h-43zM204 558l97 144l76 -2l-130 -142h-43z" />
    <glyph glyph-name="endash" unicode="&#x2013;" horiz-adv-x="500" 
d="M-1 300h503v-52h-503v52z" />
    <glyph glyph-name="emdash" unicode="&#x2014;" horiz-adv-x="1000" 
d="M-1 300h1003v-52h-1003v52z" />
    <glyph glyph-name="quoteleft" unicode="&#x2018;" horiz-adv-x="241" 
d="M114 493h-36q-12 0 -12 11q0 35 60 182q19 24 48 28l-11 -37l-18 -63q-12 -45 -13 -66l-1 -27q-1 -28 -17 -28z" />
    <glyph glyph-name="quoteright" unicode="&#x2019;" horiz-adv-x="241" 
d="M128 711h35q12 0 12 -11q-1 -38 -60 -182q-19 -24 -48 -28l11 37q28 94 28 134v22q0 28 22 28z" />
    <glyph glyph-name="quotesinglbase" unicode="&#x201a;" horiz-adv-x="241" 
d="M128 83h35q12 0 12 -11q-1 -38 -60 -182q-19 -24 -48 -28l11 37q28 94 28 135v21q0 28 22 28z" />
    <glyph glyph-name="quotedblleft" unicode="&#x201c;" horiz-adv-x="465" 
d="M315 493h-36q-12 0 -12 11q0 35 60 182q19 24 48 28l-11 -37q-21 -70 -29 -133l-3 -23q0 -28 -17 -28zM141 493h-36q-12 0 -12 11q0 35 60 182q19 24 48 28l-11 -37q-12 -39 -28 -133l-4 -23q0 -28 -17 -28z" />
    <glyph glyph-name="quotedblright" unicode="&#x201d;" horiz-adv-x="465" 
d="M325 711h35q12 0 12 -11q-1 -38 -60 -182q-19 -24 -48 -28l11 37q25 83 27 134l1 22q1 28 22 28zM151 711h35q12 0 12 -11q-1 -38 -60 -182q-19 -24 -48 -28l11 37q24 82 27 136l1 20q1 28 22 28z" />
    <glyph glyph-name="quotedblbase" unicode="&#x201e;" horiz-adv-x="465" 
d="M323 83h35q12 0 12 -11q-1 -38 -60 -182q-19 -24 -48 -28l11 37q24 82 27 135l1 21q1 28 22 28zM150 83h35q12 0 12 -11q-1 -38 -60 -182q-19 -24 -48 -28l11 37q30 101 30 137l-2 19q0 28 22 28z" />
    <glyph glyph-name="dagger" unicode="&#x2020;" horiz-adv-x="545" 
d="M301 715l-6 -214l177 6v-53l-177 6l4 -160l-1 -402h-52l-1 402l4 160l-178 -6v53l178 -6l-6 214h58z" />
    <glyph glyph-name="daggerdbl" unicode="&#x2021;" horiz-adv-x="542" 
d="M301 715l-7 -207l176 6v-53l-176 6l6 -167l-6 -150l176 6v-53l-176 6l7 -211h-60l7 211l-177 -6v53l177 -6l-6 150l6 167l-177 -6v53l177 -6l-7 207h60z" />
    <glyph glyph-name="bullet" unicode="&#x2022;" horiz-adv-x="525" 
d="M263 524q169 0 169 -168t-168 -168q-169 0 -169 168q0 79 44 123.5t124 44.5z" />
    <glyph glyph-name="ellipsis" unicode="&#x2026;" horiz-adv-x="1000" 
d="M170 87q27 0 33 -7t6 -37q0 -29 -6.5 -36.5t-32.5 -7.5t-32.5 9t-6.5 35q0 28 5.5 36t33.5 8zM505 87q27 0 33 -7t6 -37q0 -29 -6.5 -36.5t-32.5 -7.5t-32.5 9t-6.5 35q0 28 5.5 36t33.5 8zM829 87q27 0 33 -7t6 -37q0 -29 -6.5 -36.5t-32.5 -7.5t-32.5 9t-6.5 35
q0 28 5.5 36t33.5 8z" />
    <glyph glyph-name="perthousand" unicode="&#x2030;" horiz-adv-x="1018" 
d="M529 724h52l-448 -737h-52zM174 718q64 0 105 -45.5t41 -116.5q0 -72 -40.5 -117t-105.5 -45t-105.5 45.5t-40.5 117.5q0 70 41 115.5t105 45.5zM175 674q-43 0 -70 -32.5t-27 -84.5q0 -51 27 -84.5t70 -33.5q42 0 68.5 33t26.5 85t-26.5 84.5t-68.5 32.5zM494 315
q64 0 105 -45t41 -116t-40.5 -116t-105.5 -45t-105.5 45t-40.5 117q0 70 41 115t105 45zM495 272q-43 0 -70 -33t-27 -84t27 -84t70 -33t69 32.5t26 84.5q0 51 -26.5 84t-68.5 33zM843 315q64 0 105 -45t41 -116t-40.5 -116t-105.5 -45t-105.5 45t-40.5 117q0 70 41 115
t105 45zM844 272q-43 0 -70 -33t-27 -84t27 -84t70 -33t69 32.5t26 84.5q0 51 -26.5 84t-68.5 33z" />
    <glyph glyph-name="guilsinglleft" unicode="&#x2039;" horiz-adv-x="289" 
d="M100 270l141 -186l-55 -5l-147 189v4l147 189l55 -5z" />
    <glyph glyph-name="guilsinglright" unicode="&#x203a;" horiz-adv-x="289" 
d="M188 270l-139 186l55 5l145 -189v-4l-145 -189l-55 5z" />
    <glyph glyph-name="fraction" unicode="&#x2044;" horiz-adv-x="153" 
d="M-173 -16l446 740h52l-444 -740h-54z" />
    <glyph glyph-name="fi" unicode="&#xf001;" horiz-adv-x="511" 
d="M427 490v-490h-56v490h56zM157 442v-442h-56v442h-84v47h84v104q0 164 136 164q31 0 58 -12l-1 -48q-27 12 -56 12q-81 0 -81 -114v-106h107v-47h-107zM400 717q26 0 31.5 -6.5t5.5 -37.5q0 -27 -5 -34q-7 -10 -32 -10q-26 0 -31.5 7t-5.5 37q0 31 5.5 37.5t31.5 6.5z
" />
    <glyph glyph-name="fl" unicode="&#xf002;" horiz-adv-x="504" 
d="M158 442l-1 -442h-55v442h-84v47h84v106q0 162 135 162q26 0 56 -11l-1 -48q-29 11 -54 11q-80 0 -80 -109v-111h109v-47h-109zM367 746h56v-746h-56v746z" />
    <glyph glyph-name="glyph223" horiz-adv-x="673" 
d="M0 291v40h50q-1 8 -1 25q0 25 1 37h-50v45h56q25 127 118 205.5t224 78.5q133 0 210 -83l-15 -54q-78 84 -198 84q-105 0 -179 -63t-97 -168h383v-45h-389q-2 -24 -2 -37q0 -17 1 -25h392v-40h-388q18 -113 94 -180.5t187 -67.5q130 0 201 85l18 -54q-84 -84 -214 -84
q-140 0 -234.5 82.5t-114.5 218.5h-53z" />
    <glyph glyph-name="glyph224" horiz-adv-x="0" 
 />
    <glyph glyph-name="eec257" horiz-adv-x="650" 
d="M468 273l-143 367l-144 -367h287zM636 0h-62l-86 220h-328l-86 -220h-61l286 719h55zM323 771q-111 0 -134 115h37q23 -64 97 -64t97 64h37q-23 -115 -134 -115z" />
    <glyph glyph-name="eec258" horiz-adv-x="486" 
d="M356 152v86q-27 10 -100 10q-77 0 -121 -35q-40 -33 -40 -84q0 -42 28.5 -67t82.5 -25q58 0 100 34q40 31 50 81zM359 63q-65 -74 -161 -74q-73 0 -116.5 39t-43.5 100q0 74 56.5 118.5t155.5 44.5q62 0 106 -9v59q0 112 -121 112q-81 0 -141 -52l-18 42q21 21 63 38
q48 19 99 19q173 0 173 -151v-280l6 -74h-52q-6 34 -6 68zM116 657h273v-50h-273v50z" />
    <glyph glyph-name="eec259" horiz-adv-x="650" 
d="M468 273l-143 367l-144 -367h287zM636 0h-62l-86 220h-328l-86 -220h-61l286 719h55zM192 861h273v-50h-273v50z" />
    <glyph glyph-name="eec260" horiz-adv-x="299" 
d="M32 297h234v-56h-234v56z" />
    <glyph glyph-name="eec261" horiz-adv-x="456" 
d="M410 92l12 -50q-57 -52 -148 -52q-108 0 -172 69.5t-64 185.5q0 114 65.5 184.5t172.5 70.5q87 0 141 -52l-13 -50q-52 54 -126 54q-83 0 -132.5 -56t-49.5 -149t50 -151t132 -58q38 0 77 17q36 15 55 37zM208 559l101 143l75 -2l-134 -142z" />
    <glyph glyph-name="eec262" horiz-adv-x="673" 
d="M111 356q0 -138 79.5 -225.5t206.5 -87.5q130 0 201 85l14 -50q-80 -88 -210 -88q-157 0 -255 102t-98 264q0 159 98.5 262.5t250.5 103.5q138 0 214 -82l-19 -55q-78 84 -198 84q-126 0 -205 -87.5t-79 -225.5zM330 763l101 143l75 -2l-134 -142z" />
    <glyph glyph-name="eec263" horiz-adv-x="390" 
d="M353 132q0 -63 -47 -103t-122 -40q-46 0 -88.5 17.5t-63.5 47.5l20 43q44 -59 134 -59q47 0 79 26t32 66q0 37 -27.5 60t-90.5 45q-133 46 -133 135q0 59 43 94.5t108 35.5q41 0 79 -15t57 -37l-25 -43q-43 48 -109 48q-46 0 -72.5 -23t-26.5 -59q0 -53 112 -92
q72 -25 105 -57q36 -36 36 -90zM98 -176l1 34q10 -4 20 -7q19 -7 34 -7q45 0 45 31q0 29 -37 29h-27l48 98h36l-43 -80l20 3q24 0 39.5 -15t15.5 -38q0 -59 -81 -59q-34 0 -71 11z" />
    <glyph glyph-name="eec264" horiz-adv-x="514" 
d="M465 186q0 -84 -62.5 -140t-156.5 -56q-137 0 -200 88l27 57q23 -39 67 -64q48 -28 104 -28q69 0 114.5 41t45.5 103q0 54 -43 92q-35 31 -118 65q-90 37 -132 77q-51 49 -51 119q0 79 58.5 130.5t147.5 51.5q54 0 103 -20.5t70 -50.5l-26 -49q-50 67 -147 67
q-63 0 -103.5 -36t-40.5 -94q0 -46 44 -83q36 -30 118 -65q96 -41 135 -82q46 -48 46 -123zM158 -176l1 34q10 -4 20 -7q19 -7 34 -7q45 0 45 31q0 29 -37 29h-27l48 98h36l-43 -80l20 3q24 0 39.5 -15t15.5 -38q0 -59 -81 -59q-34 0 -71 11z" />
    <glyph glyph-name="eec265" horiz-adv-x="228" 
d="M144 0h-60v712h60v-712zM116 876q25 0 31.5 -7.5t6.5 -35.5t-8 -35.5t-30 -7.5q-17 0 -24 3q-14 7 -14 40q0 27 7 35t31 8z" />
    <glyph glyph-name="eec266" horiz-adv-x="506" 
d="M244 455q-57 0 -93 -38t-36 -99q0 -58 35.5 -95t92.5 -37q58 0 93.5 35.5t35.5 95.5q0 65 -34 101.5t-94 36.5zM58 320q0 78 53.5 129t132.5 51q62 0 105 -29q54 33 135 32q0 2 -1 -46q-62 0 -94 -19q39 -45 39 -120q0 -80 -52 -129.5t-135 -49.5q-29 0 -49 6
q-17 -6 -31 -14q-24 -13 -24 -35q0 -42 124 -47q210 -8 210 -134q0 -67 -62 -103q-58 -34 -160 -34q-104 0 -163 34t-59 95q0 76 108 115q-55 18 -55 66q0 52 64 77q-23 16 -33 26q-53 53 -53 129zM220 1q-76 -11 -105 -33q-32 -24 -32 -59q0 -37 40 -61q44 -25 124 -25
q71 0 116 21q51 24 51 68q0 37 -43 60t-118 26q-18 1 -33 3zM254 567q-111 0 -134 115h37q23 -64 97 -64t97 64h37q-23 -115 -134 -115z" />
    <glyph glyph-name="eec267" horiz-adv-x="732" 
d="M114 357q0 -142 80 -228t213 -86q69 0 124.5 31.5t69.5 81.5v145h-185v52h245v-226l-12 -22q-30 -54 -100 -86q-66 -29 -145 -29q-156 0 -254 102t-98 265q0 160 97.5 262.5t249.5 102.5q77 0 144 -27q64 -27 98 -70l-26 -51q-84 95 -216 95q-125 0 -205 -87.5
t-80 -224.5zM392 771q-111 0 -134 115h37q23 -64 97 -64t97 64h37q-23 -115 -134 -115z" />
    <glyph glyph-name="eec268" horiz-adv-x="465" 
d="M25 215h58v497h349v-53h-289v-259h256v-54h-256v-131h58v-51h-58v-164h-60v164h-58v51z" />
    <glyph glyph-name="eec269" horiz-adv-x="697" 
d="M697 352q0 -147 -101.5 -248.5t-247.5 -101.5q-147 0 -248.5 101.5t-101.5 248.5q0 146 101.5 247.5t248.5 101.5q146 0 247.5 -101.5t101.5 -247.5zM549 534q2 8 2 11q0 29 -31 29q-20 0 -27 -19l-71 -190q-2 -8 -2 -12q0 -29 31 -29q20 0 27 20zM306 550q-8 19 -27 19
q-31 0 -31 -29q0 -6 3 -13l155 -380q8 -19 27 -19q31 0 31 28q0 6 -3 13zM156 550q-8 19 -27 19q-31 0 -31 -29q0 -6 3 -13l155 -380q8 -19 27 -19q31 0 31 28q0 6 -3 13z" />
    <glyph glyph-name="eec270" horiz-adv-x="583" 
d="M505 712h68l-252 -394v-318h-60v319l-252 393h70l211 -339zM206 874q23 0 30.5 -7t7.5 -36q0 -43 -38 -43q-25 0 -31.5 9t-6.5 34q0 33 13 39q8 4 25 4zM378 874q26 0 33 -10q5 -6 5 -33q0 -33 -13 -39q-8 -4 -25 -4q-26 0 -33 10q-5 6 -5 33q0 29 10 37q6 6 28 6z" />
    <glyph glyph-name="eec271" 
d="M566 47v-47h-514v47h514zM52 128l449 200l-449 200v56l514 -230v-52l-514 -230v56z" />
    <glyph glyph-name="eec272" 
d="M52 47h514v-47h-514v47zM116 328l450 -200v-56l-514 230v52l514 230v-56z" />
    <glyph glyph-name="eec273" horiz-adv-x="713" 
d="M76 264q0 -41 24.5 -65t66.5 -24q70 0 152 89q-82 89 -152 89q-40 0 -65.5 -27.5t-25.5 -61.5zM357 229q-111 -105 -190 -105q-55 0 -98.5 40.5t-43.5 99.5t43.5 99.5t98.5 40.5q44 0 80 -19q42 -22 110 -86q68 64 110 86q36 19 80 19q55 0 98.5 -40.5t43.5 -99.5
t-43.5 -99.5t-98.5 -40.5q-79 0 -190 105zM638 264q0 34 -24 61q-27 28 -67 28q-70 0 -152 -89q82 -89 152 -89q42 0 66.5 24t24.5 65z" />
    <glyph glyph-name="eec274" 
d="M51 147v56h199l60 146h-259v56h282l47 116h56l-47 -116h176v-56h-199l-60 -146h259v-56h-282l-47 -116h-56l47 116h-176z" />
    <glyph glyph-name="eec275" horiz-adv-x="970" 
d="M391 667h-135v-360h-54v360h-134v45h323v-45zM876 712v-405h-50v362l-143 -362h-30l-140 362v-362h-49v405h85l121 -316l119 316h87z" />
    <glyph glyph-name="eec276" horiz-adv-x="442" 
d="M45 490h372l1 -31l-320 -411h322v-48h-401v31l323 411h-297v48zM84 699h45l93 -98l93 98h45l-110 -145h-56z" />
    <glyph glyph-name="eec277" horiz-adv-x="553" 
d="M523 53v-53h-500l-1 37l417 622h-394l1 53h472l1 -39l-417 -620h421zM139 903h45l93 -98l93 98h45l-110 -145h-56z" />
    <glyph glyph-name="eec278" horiz-adv-x="390" 
d="M353 132q0 -63 -47 -103t-122 -40q-46 0 -88.5 17.5t-63.5 47.5l20 43q44 -59 134 -59q47 0 79 26t32 66q0 37 -27.5 60t-90.5 45q-133 46 -133 135q0 59 43 94.5t108 35.5q41 0 79 -15t57 -37l-25 -43q-43 48 -109 48q-46 0 -72.5 -23t-26.5 -59q0 -53 112 -92
q72 -25 105 -57q36 -36 36 -90zM58 699h45l93 -98l93 98h45l-110 -145h-56z" />
    <glyph glyph-name="eec279" horiz-adv-x="514" 
d="M465 186q0 -84 -62.5 -140t-156.5 -56q-137 0 -200 88l27 57q23 -39 67 -64q48 -28 104 -28q69 0 114.5 41t45.5 103q0 54 -43 92q-35 31 -118 65q-90 37 -132 77q-51 49 -51 119q0 79 58.5 130.5t147.5 51.5q54 0 103 -20.5t70 -50.5l-26 -49q-50 67 -147 67
q-63 0 -103.5 -36t-40.5 -94q0 -46 44 -83q36 -30 118 -65q96 -41 135 -82q46 -48 46 -123zM119 903h45l93 -98l93 98h45l-110 -145h-56z" />
    <glyph glyph-name="eec280" horiz-adv-x="442" 
d="M379 490h59l-251 -626q-36 -91 -93 -88l-42 2v48l28 -4q34 0 53 45l64 150l-191 473h60l158 -405zM134 670q23 0 30.5 -7t7.5 -36q0 -43 -38 -43q-25 0 -31.5 9t-6.5 34q0 33 13 39q8 4 25 4zM306 670q26 0 33 -10q5 -6 5 -33q0 -33 -13 -39q-8 -4 -25 -4q-26 0 -33 10
q-5 6 -5 33q0 29 10 37q6 6 28 6z" />
    <glyph glyph-name="eec281" horiz-adv-x="547" 
d="M131 69v-290h-56v967h56v-328q60 82 155 82q101 0 160 -69.5t59 -186.5q0 -114 -58.5 -184t-156.5 -70q-103 0 -159 79zM130 186q7 -62 49.5 -105t101.5 -43q78 0 121.5 55.5t43.5 151.5q0 91 -45.5 149t-118.5 58q-59 0 -100 -41t-52 -110v-115z" />
    <glyph glyph-name="eec282" horiz-adv-x="442" 
d="M379 490h59l-251 -626q-36 -91 -93 -88l-42 2v48l28 -4q34 0 53 45l64 150l-191 473h60l158 -405zM166 559l101 143l75 -2l-134 -142z" />
    <glyph glyph-name="eec283" horiz-adv-x="524" 
d="M450 490v-495h-44v105q-45 -110 -163 -110q-169 0 -169 182v318h56v-307q0 -145 119 -145q59 0 99 40.5t46 98.5v313h56zM175 670q23 0 30.5 -7t7.5 -36q0 -43 -38 -43q-25 0 -31.5 9t-6.5 34q0 33 13 39q8 4 25 4zM347 670q26 0 33 -10q5 -6 5 -33q0 -33 -13 -39
q-8 -4 -25 -4q-26 0 -33 10q-5 6 -5 33q0 29 10 37q6 6 28 6z" />
    <glyph glyph-name="eec284" horiz-adv-x="524" 
d="M450 490v-495h-44v105q-45 -110 -163 -110q-169 0 -169 182v318h56v-307q0 -145 119 -145q59 0 99 40.5t46 98.5v313h56zM124 561l110 139h56l110 -139l-45 -6l-93 98l-93 -98z" />
    <glyph glyph-name="eec285" horiz-adv-x="524" 
d="M450 490v-495h-44v105q-45 -110 -163 -110q-169 0 -169 182v318h56v-307q0 -145 119 -145q59 0 99 40.5t46 98.5v313h56zM207 559l101 143l75 -2l-134 -142z" />
    <glyph glyph-name="eec286" horiz-adv-x="524" 
d="M450 490v-495h-44v105q-45 -110 -163 -110q-169 0 -169 182v318h56v-307q0 -145 119 -145q59 0 99 40.5t46 98.5v313h56zM334 559l-42 -1l-134 142l75 1z" />
    <glyph glyph-name="eec287" 
d="M307 518q33 0 35.5 -3t2.5 -40q0 -38 -2.5 -40.5t-35.5 -2.5t-35.5 2.5t-2.5 40.5q0 37 2.5 40t35.5 3zM51 248v56h514v-56h-514zM307 122q33 0 35.5 -3t2.5 -40q0 -38 -2.5 -40.5t-35.5 -2.5t-35.5 2.5t-2.5 40.5q0 37 2.5 40t35.5 3z" />
    <glyph glyph-name="eec288" horiz-adv-x="540" 
d="M502 245q0 -114 -64 -184.5t-168 -70.5t-168 70.5t-64 184.5t64 184.5t168 70.5t168 -70.5t64 -184.5zM444 245q0 91 -48.5 149t-125.5 58t-125.5 -58t-48.5 -149t48.5 -149t125.5 -58t125.5 58t48.5 149zM182 670q23 0 30.5 -7t7.5 -36q0 -43 -38 -43q-25 0 -31.5 9
t-6.5 34q0 33 13 39q8 4 25 4zM354 670q26 0 33 -10q5 -6 5 -33q0 -33 -13 -39q-8 -4 -25 -4q-26 0 -33 10q-5 6 -5 33q0 29 10 37q6 6 28 6z" />
    <glyph glyph-name="eec289" horiz-adv-x="540" 
d="M502 245q0 -114 -64 -184.5t-168 -70.5t-168 70.5t-64 184.5t64 184.5t168 70.5t168 -70.5t64 -184.5zM444 245q0 91 -48.5 149t-125.5 58t-125.5 -58t-48.5 -149t48.5 -149t125.5 -58t125.5 58t48.5 149zM418 671q-15 -88 -82 -88q-25 0 -69 19t-67 19q-32 0 -43 -38
h-35q15 88 82 88q25 0 69 -19t67 -19q30 0 41 38h37z" />
    <glyph glyph-name="eec290" horiz-adv-x="540" 
d="M502 245q0 -114 -64 -184.5t-168 -70.5t-168 70.5t-64 184.5t64 184.5t168 70.5t168 -70.5t64 -184.5zM444 245q0 91 -48.5 149t-125.5 58t-125.5 -58t-48.5 -149t48.5 -149t125.5 -58t125.5 58t48.5 149zM131 561l110 139h56l110 -139l-45 -6l-93 98l-93 -98z" />
    <glyph glyph-name="eec291" horiz-adv-x="540" 
d="M502 245q0 -114 -64 -184.5t-168 -70.5t-168 70.5t-64 184.5t64 184.5t168 70.5t168 -70.5t64 -184.5zM444 245q0 91 -48.5 149t-125.5 58t-125.5 -58t-48.5 -149t48.5 -149t125.5 -58t125.5 58t48.5 149zM214 559l101 143l75 -2l-134 -142z" />
    <glyph glyph-name="eec292" horiz-adv-x="540" 
d="M502 245q0 -114 -64 -184.5t-168 -70.5t-168 70.5t-64 184.5t64 184.5t168 70.5t168 -70.5t64 -184.5zM444 245q0 91 -48.5 149t-125.5 58t-125.5 -58t-48.5 -149t48.5 -149t125.5 -58t125.5 58t48.5 149zM341 559l-42 -1l-134 142l75 1z" />
    <glyph glyph-name="eec293" horiz-adv-x="528" 
d="M451 314v-314h-56v308q0 144 -114 144q-119 0 -150 -152v-300h-56v490h53v-86q58 96 159 96q164 0 164 -186zM412 671q-15 -88 -82 -88q-25 0 -69 19t-67 19q-32 0 -43 -38h-35q15 88 82 88q25 0 69 -19t67 -19q30 0 41 38h37z" />
    <glyph glyph-name="eec294" horiz-adv-x="544" 
d="M507 264q0 -127 -62.5 -201t-170.5 -74q-105 0 -170.5 70.5t-65.5 183.5q0 114 65.5 185.5t170.5 71.5q87 0 151 -64q-17 67 -83 146q-13 15 -40 41l-126 -75l-27 37l115 68q-39 30 -117 61l25 36q87 -28 138 -69l119 70l26 -37l-107 -64q43 -40 69 -76q90 -124 90 -310z
M274 454q-81 0 -130 -58.5t-49 -152.5q0 -91 50 -149t129 -58q77 0 126.5 59t49.5 149q0 94 -48 152t-128 58z" />
    <glyph glyph-name="eec295" horiz-adv-x="218" 
d="M136 490v-490h-56v490h56zM23 670q23 0 30.5 -7t7.5 -36q0 -43 -38 -43q-25 0 -31.5 9t-6.5 34q0 33 13 39q8 4 25 4zM195 670q26 0 33 -10q5 -6 5 -33q0 -33 -13 -39q-8 -4 -25 -4q-26 0 -33 10q-5 6 -5 33q0 29 10 37q6 6 28 6z" />
    <glyph glyph-name="eec296" horiz-adv-x="218" 
d="M136 490v-490h-56v490h56zM-28 561l110 139h56l110 -139l-45 -6l-93 98l-93 -98z" />
    <glyph glyph-name="eec297" horiz-adv-x="218" 
d="M136 490v-490h-56v490h56zM55 559l101 143l75 -2l-134 -142z" />
    <glyph glyph-name="eec298" horiz-adv-x="218" 
d="M136 490v-490h-56v490h56zM182 559l-42 -1l-134 142l75 1z" />
    <glyph glyph-name="eec299" horiz-adv-x="498" 
d="M419 105l26 -41q-25 -33 -74.5 -53.5t-103.5 -20.5q-108 0 -168.5 68.5t-60.5 188.5q0 109 60 181t153 72q96 0 152 -65t56 -178v-17h-365q4 -91 45 -143q47 -59 134 -59q47 0 91 23q37 19 55 44zM96 287h303q-7 75 -45 120t-98 45q-68 0 -112 -50q-39 -44 -48 -115z
M164 670q23 0 30.5 -7t7.5 -36q0 -43 -38 -43q-25 0 -31.5 9t-6.5 34q0 33 13 39q8 4 25 4zM336 670q26 0 33 -10q5 -6 5 -33q0 -33 -13 -39q-8 -4 -25 -4q-26 0 -33 10q-5 6 -5 33q0 29 10 37q6 6 28 6z" />
    <glyph glyph-name="eec300" horiz-adv-x="498" 
d="M419 105l26 -41q-25 -33 -74.5 -53.5t-103.5 -20.5q-108 0 -168.5 68.5t-60.5 188.5q0 109 60 181t153 72q96 0 152 -65t56 -178v-17h-365q4 -91 45 -143q47 -59 134 -59q47 0 91 23q37 19 55 44zM96 287h303q-7 75 -45 120t-98 45q-68 0 -112 -50q-39 -44 -48 -115z
M113 561l110 139h56l110 -139l-45 -6l-93 98l-93 -98z" />
    <glyph glyph-name="eec301" horiz-adv-x="498" 
d="M419 105l26 -41q-25 -33 -74.5 -53.5t-103.5 -20.5q-108 0 -168.5 68.5t-60.5 188.5q0 109 60 181t153 72q96 0 152 -65t56 -178v-17h-365q4 -91 45 -143q47 -59 134 -59q47 0 91 23q37 19 55 44zM96 287h303q-7 75 -45 120t-98 45q-68 0 -112 -50q-39 -44 -48 -115z
M196 559l101 143l75 -2l-134 -142z" />
    <glyph glyph-name="eec302" horiz-adv-x="498" 
d="M419 105l26 -41q-25 -33 -74.5 -53.5t-103.5 -20.5q-108 0 -168.5 68.5t-60.5 188.5q0 109 60 181t153 72q96 0 152 -65t56 -178v-17h-365q4 -91 45 -143q47 -59 134 -59q47 0 91 23q37 19 55 44zM96 287h303q-7 75 -45 120t-98 45q-68 0 -112 -50q-39 -44 -48 -115z
M323 559l-42 -1l-134 142l75 1z" />
    <glyph glyph-name="eec303" horiz-adv-x="456" 
d="M410 92l12 -50q-57 -52 -148 -52q-108 0 -172 69.5t-64 185.5q0 114 65.5 184.5t172.5 70.5q87 0 141 -52l-13 -50q-52 54 -126 54q-83 0 -132.5 -56t-49.5 -149t50 -151t132 -58q38 0 77 17q36 15 55 37zM164 -176l1 34q10 -4 20 -7q19 -7 34 -7q45 0 45 31q0 29 -37 29
h-27l48 98h36l-43 -80l20 3q24 0 39.5 -15t15.5 -38q0 -59 -81 -59q-34 0 -71 11z" />
    <glyph glyph-name="eec304" horiz-adv-x="486" 
d="M356 152v86q-27 10 -100 10q-77 0 -121 -35q-40 -33 -40 -84q0 -42 28.5 -67t82.5 -25q58 0 100 34q40 31 50 81zM359 63q-65 -74 -161 -74q-73 0 -116.5 39t-43.5 100q0 74 56.5 118.5t155.5 44.5q62 0 106 -9v59q0 112 -121 112q-81 0 -141 -52l-18 42q21 21 63 38
q48 19 99 19q173 0 173 -151v-280l6 -74h-52q-6 34 -6 68zM249 731q38 0 65.5 -27.5t27.5 -65.5t-27.5 -65.5t-65.5 -27.5q-39 0 -66 27.5t-27 65.5t27 65.5t66 27.5zM249 696q-25 0 -41.5 -17t-16.5 -41t16.5 -41t41.5 -17q24 0 41 17t17 41t-17 41t-41 17z" />
    <glyph glyph-name="eec305" horiz-adv-x="486" 
d="M356 152v86q-27 10 -100 10q-77 0 -121 -35q-40 -33 -40 -84q0 -42 28.5 -67t82.5 -25q58 0 100 34q40 31 50 81zM359 63q-65 -74 -161 -74q-73 0 -116.5 39t-43.5 100q0 74 56.5 118.5t155.5 44.5q62 0 106 -9v59q0 112 -121 112q-81 0 -141 -52l-18 42q21 21 63 38
q48 19 99 19q173 0 173 -151v-280l6 -74h-52q-6 34 -6 68zM162 670q23 0 30.5 -7t7.5 -36q0 -43 -38 -43q-25 0 -31.5 9t-6.5 34q0 33 13 39q8 4 25 4zM334 670q26 0 33 -10q5 -6 5 -33q0 -33 -13 -39q-8 -4 -25 -4q-26 0 -33 10q-5 6 -5 33q0 29 10 37q6 6 28 6z" />
    <glyph glyph-name="eec306" horiz-adv-x="486" 
d="M356 152v86q-27 10 -100 10q-77 0 -121 -35q-40 -33 -40 -84q0 -42 28.5 -67t82.5 -25q58 0 100 34q40 31 50 81zM359 63q-65 -74 -161 -74q-73 0 -116.5 39t-43.5 100q0 74 56.5 118.5t155.5 44.5q62 0 106 -9v59q0 112 -121 112q-81 0 -141 -52l-18 42q21 21 63 38
q48 19 99 19q173 0 173 -151v-280l6 -74h-52q-6 34 -6 68zM398 671q-15 -88 -82 -88q-25 0 -69 19t-67 19q-32 0 -43 -38h-35q15 88 82 88q25 0 69 -19t67 -19q30 0 41 38h37z" />
    <glyph glyph-name="eec307" horiz-adv-x="486" 
d="M356 152v86q-27 10 -100 10q-77 0 -121 -35q-40 -33 -40 -84q0 -42 28.5 -67t82.5 -25q58 0 100 34q40 31 50 81zM359 63q-65 -74 -161 -74q-73 0 -116.5 39t-43.5 100q0 74 56.5 118.5t155.5 44.5q62 0 106 -9v59q0 112 -121 112q-81 0 -141 -52l-18 42q21 21 63 38
q48 19 99 19q173 0 173 -151v-280l6 -74h-52q-6 34 -6 68zM111 561l110 139h56l110 -139l-45 -6l-93 98l-93 -98z" />
    <glyph glyph-name="eec308" horiz-adv-x="486" 
d="M356 152v86q-27 10 -100 10q-77 0 -121 -35q-40 -33 -40 -84q0 -42 28.5 -67t82.5 -25q58 0 100 34q40 31 50 81zM359 63q-65 -74 -161 -74q-73 0 -116.5 39t-43.5 100q0 74 56.5 118.5t155.5 44.5q62 0 106 -9v59q0 112 -121 112q-81 0 -141 -52l-18 42q21 21 63 38
q48 19 99 19q173 0 173 -151v-280l6 -74h-52q-6 34 -6 68zM194 559l101 143l75 -2l-134 -142z" />
    <glyph glyph-name="eec309" horiz-adv-x="486" 
d="M356 152v86q-27 10 -100 10q-77 0 -121 -35q-40 -33 -40 -84q0 -42 28.5 -67t82.5 -25q58 0 100 34q40 31 50 81zM359 63q-65 -74 -161 -74q-73 0 -116.5 39t-43.5 100q0 74 56.5 118.5t155.5 44.5q62 0 106 -9v59q0 112 -121 112q-81 0 -141 -52l-18 42q21 21 63 38
q48 19 99 19q173 0 173 -151v-280l6 -74h-52q-6 34 -6 68zM321 559l-42 -1l-134 142l75 1z" />
    <glyph glyph-name="eec310" horiz-adv-x="518" 
d="M87 712h60v-146h118q106 0 164.5 -51.5t58.5 -146.5q0 -90 -60.5 -142t-163.5 -52h-117v53l105 1q175 2 175 145q0 140 -160 140h-120v-513h-60v712z" />
    <glyph glyph-name="eec311" horiz-adv-x="583" 
d="M505 712h68l-252 -394v-318h-60v319l-252 393h70l211 -339zM238 763l101 143l75 -2l-134 -142z" />
    <glyph glyph-name="eec312" horiz-adv-x="683" 
d="M543 255v457h60v-460q0 -121 -70.5 -191.5t-190.5 -70.5q-121 0 -191.5 69.5t-70.5 189.5v463h60v-459q0 -100 53 -155t149 -55q95 0 148 56t53 156zM255 874q23 0 30.5 -7t7.5 -36q0 -43 -38 -43q-25 0 -31.5 9t-6.5 34q0 33 13 39q8 4 25 4zM427 874q26 0 33 -10
q5 -6 5 -33q0 -33 -13 -39q-8 -4 -25 -4q-26 0 -33 10q-5 6 -5 33q0 29 10 37q6 6 28 6z" />
    <glyph glyph-name="eec313" horiz-adv-x="683" 
d="M543 255v457h60v-460q0 -121 -70.5 -191.5t-190.5 -70.5q-121 0 -191.5 69.5t-70.5 189.5v463h60v-459q0 -100 53 -155t149 -55q95 0 148 56t53 156zM204 765l110 139h56l110 -139l-45 -6l-93 98l-93 -98z" />
    <glyph glyph-name="eec314" horiz-adv-x="683" 
d="M543 255v457h60v-460q0 -121 -70.5 -191.5t-190.5 -70.5q-121 0 -191.5 69.5t-70.5 189.5v463h60v-459q0 -100 53 -155t149 -55q95 0 148 56t53 156zM287 763l101 143l75 -2l-134 -142z" />
    <glyph glyph-name="eec315" horiz-adv-x="683" 
d="M543 255v457h60v-460q0 -121 -70.5 -191.5t-190.5 -70.5q-121 0 -191.5 69.5t-70.5 189.5v463h60v-459q0 -100 53 -155t149 -55q95 0 148 56t53 156zM414 763l-42 -1l-134 142l75 1z" />
    <glyph glyph-name="eec316" 
d="M268 276l-196 196l40 40l196 -196l196 196l40 -40l-196 -196l196 -196l-40 -40l-196 196l-196 -196l-40 40z" />
    <glyph glyph-name="eec317" horiz-adv-x="760" 
d="M647 356q0 135 -76 224t-193 89t-192.5 -89t-75.5 -224q0 -136 75.5 -224.5t192.5 -88.5t193 88.5t76 224.5zM709 356q0 -162 -92 -264t-239 -102t-238.5 102t-91.5 264t91.5 264t238.5 102t239 -102t92 -264zM293 874q23 0 30.5 -7t7.5 -36q0 -43 -38 -43q-25 0 -31.5 9
t-6.5 34q0 33 13 39q8 4 25 4zM465 874q26 0 33 -10q5 -6 5 -33q0 -33 -13 -39q-8 -4 -25 -4q-26 0 -33 10q-5 6 -5 33q0 29 10 37q6 6 28 6z" />
    <glyph glyph-name="eec318" horiz-adv-x="760" 
d="M647 356q0 135 -76 224t-193 89t-192.5 -89t-75.5 -224q0 -136 75.5 -224.5t192.5 -88.5t193 88.5t76 224.5zM709 356q0 -162 -92 -264t-239 -102t-238.5 102t-91.5 264t91.5 264t238.5 102t239 -102t92 -264zM529 875q-15 -88 -82 -88q-25 0 -69 19t-67 19
q-32 0 -43 -38h-35q15 88 82 88q25 0 69 -19t67 -19q30 0 41 38h37z" />
    <glyph glyph-name="eec319" horiz-adv-x="760" 
d="M647 356q0 135 -76 224t-193 89t-192.5 -89t-75.5 -224q0 -136 75.5 -224.5t192.5 -88.5t193 88.5t76 224.5zM709 356q0 -162 -92 -264t-239 -102t-238.5 102t-91.5 264t91.5 264t238.5 102t239 -102t92 -264zM242 765l110 139h56l110 -139l-45 -6l-93 98l-93 -98z" />
    <glyph glyph-name="eec320" horiz-adv-x="760" 
d="M647 356q0 135 -76 224t-193 89t-192.5 -89t-75.5 -224q0 -136 75.5 -224.5t192.5 -88.5t193 88.5t76 224.5zM709 356q0 -162 -92 -264t-239 -102t-238.5 102t-91.5 264t91.5 264t238.5 102t239 -102t92 -264zM325 763l101 143l75 -2l-134 -142z" />
    <glyph glyph-name="eec321" horiz-adv-x="760" 
d="M647 356q0 135 -76 224t-193 89t-192.5 -89t-75.5 -224q0 -136 75.5 -224.5t192.5 -88.5t193 88.5t76 224.5zM709 356q0 -162 -92 -264t-239 -102t-238.5 102t-91.5 264t91.5 264t238.5 102t239 -102t92 -264zM452 763l-42 -1l-134 142l75 1z" />
    <glyph glyph-name="eec322" horiz-adv-x="737" 
d="M594 91v621h60v-717h-58l-2 5l-451 630v-630h-60v718h65q74 -109 223.5 -314t222.5 -313zM518 875q-15 -88 -82 -88q-25 0 -69 19t-67 19q-32 0 -43 -38h-35q15 88 82 88q25 0 69 -19t67 -19q30 0 41 38h37z" />
    <glyph glyph-name="eec323" horiz-adv-x="679" 
d="M144 396h204v-52h-204v-291h106q147 0 230 80t83 222q0 144 -77.5 224t-217.5 80h-124v-263zM1 396h83v318l190 -2q165 -2 258 -96t93 -261q0 -166 -98.5 -260.5t-274.5 -94.5h-168v344h-83v52z" />
    <glyph glyph-name="eec324" horiz-adv-x="228" 
d="M144 0h-60v712h60v-712zM26 874q23 0 30.5 -7t7.5 -36q0 -43 -38 -43q-25 0 -31.5 9t-6.5 34q0 33 13 39q8 4 25 4zM198 874q26 0 33 -10q5 -6 5 -33q0 -33 -13 -39q-8 -4 -25 -4q-26 0 -33 10q-5 6 -5 33q0 29 10 37q6 6 28 6z" />
    <glyph glyph-name="eec325" horiz-adv-x="228" 
d="M144 0h-60v712h60v-712zM-25 765l110 139h56l110 -139l-45 -6l-93 98l-93 -98z" />
    <glyph glyph-name="eec326" horiz-adv-x="228" 
d="M144 0h-60v712h60v-712zM58 763l101 143l75 -2l-134 -142z" />
    <glyph glyph-name="eec327" horiz-adv-x="228" 
d="M144 0h-60v712h60v-712zM185 763l-42 -1l-134 142l75 1z" />
    <glyph glyph-name="eec328" horiz-adv-x="511" 
d="M464 0h-377v712h367v-53h-307v-262h277v-53l-277 -1v-290h317v-53zM177 874q23 0 30.5 -7t7.5 -36q0 -43 -38 -43q-25 0 -31.5 9t-6.5 34q0 33 13 39q8 4 25 4zM349 874q26 0 33 -10q5 -6 5 -33q0 -33 -13 -39q-8 -4 -25 -4q-26 0 -33 10q-5 6 -5 33q0 29 10 37q6 6 28 6
z" />
    <glyph glyph-name="eec329" horiz-adv-x="511" 
d="M464 0h-377v712h367v-53h-307v-262h277v-53l-277 -1v-290h317v-53zM126 765l110 139h56l110 -139l-45 -6l-93 98l-93 -98z" />
    <glyph glyph-name="eec330" horiz-adv-x="511" 
d="M464 0h-377v712h367v-53h-307v-262h277v-53l-277 -1v-290h317v-53zM209 763l101 143l75 -2l-134 -142z" />
    <glyph glyph-name="eec331" horiz-adv-x="511" 
d="M464 0h-377v712h367v-53h-307v-262h277v-53l-277 -1v-290h317v-53zM336 763l-42 -1l-134 142l75 1z" />
    <glyph glyph-name="eec332" horiz-adv-x="673" 
d="M111 356q0 -138 79.5 -225.5t206.5 -87.5q130 0 201 85l14 -50q-80 -88 -210 -88q-157 0 -255 102t-98 264q0 159 98.5 262.5t250.5 103.5q138 0 214 -82l-19 -55q-78 84 -198 84q-126 0 -205 -87.5t-79 -225.5zM275 -176l1 34q10 -4 20 -7q19 -7 34 -7q45 0 45 31
q0 29 -37 29h-27l48 98h36l-43 -80l20 3q24 0 39.5 -15t15.5 -38q0 -59 -81 -59q-34 0 -71 11z" />
    <glyph glyph-name="eec333" horiz-adv-x="650" 
d="M468 273l-143 367l-144 -367h287zM636 0h-62l-86 220h-328l-86 -220h-61l286 719h55zM325 936q38 0 65.5 -27.5t27.5 -65.5t-27.5 -65.5t-65.5 -27.5q-39 0 -66 27.5t-27 65.5t27 65.5t66 27.5zM325 901q-25 0 -41.5 -17t-16.5 -41t16.5 -41t41.5 -17q24 0 41 17t17 41
t-17 41t-41 17z" />
    <glyph glyph-name="eec334" horiz-adv-x="650" 
d="M468 273l-143 367l-144 -367h287zM636 0h-62l-86 220h-328l-86 -220h-61l286 719h55zM238 874q23 0 30.5 -7t7.5 -36q0 -43 -38 -43q-25 0 -31.5 9t-6.5 34q0 33 13 39q8 4 25 4zM410 874q26 0 33 -10q5 -6 5 -33q0 -33 -13 -39q-8 -4 -25 -4q-26 0 -33 10q-5 6 -5 33
q0 29 10 37q6 6 28 6z" />
    <glyph glyph-name="eec335" horiz-adv-x="650" 
d="M468 273l-143 367l-144 -367h287zM636 0h-62l-86 220h-328l-86 -220h-61l286 719h55zM474 875q-15 -88 -82 -88q-25 0 -69 19t-67 19q-32 0 -43 -38h-35q15 88 82 88q25 0 69 -19t67 -19q30 0 41 38h37z" />
    <glyph glyph-name="eec336" horiz-adv-x="650" 
d="M468 273l-143 367l-144 -367h287zM636 0h-62l-86 220h-328l-86 -220h-61l286 719h55zM187 765l110 139h56l110 -139l-45 -6l-93 98l-93 -98z" />
    <glyph glyph-name="eec337" horiz-adv-x="650" 
d="M468 273l-143 367l-144 -367h287zM636 0h-62l-86 220h-328l-86 -220h-61l286 719h55zM270 763l101 143l75 -2l-134 -142z" />
    <glyph glyph-name="eec338" horiz-adv-x="650" 
d="M468 273l-143 367l-144 -367h287zM636 0h-62l-86 220h-328l-86 -220h-61l286 719h55zM397 763l-42 -1l-134 142l75 1z" />
    <glyph glyph-name="eec339" horiz-adv-x="538" 
d="M456 490v-494l-43 -2l-1 106q-43 -110 -161 -110q-76 0 -112 43v-244h-56v701h56v-307q0 -145 117 -145q58 0 98 40.5t46 98.5v313h56z" />
    <glyph glyph-name="eec340" 
d="M280 341v193h57v-193h228v-57h-228v-192h-57v192h-229v57h229zM51 0v57h514v-57h-514z" />
    <glyph glyph-name="eec341" horiz-adv-x="400" 
d="M200 724q62 0 106 -44t44 -106t-44 -106t-106 -44t-106 44t-44 106t44 106t106 44zM200 679q-44 0 -74.5 -30.5t-30.5 -74.5t30.5 -74.5t74.5 -30.5t74.5 30.5t30.5 74.5t-30.5 74.5t-74.5 30.5z" />
    <glyph glyph-name="eec342" horiz-adv-x="800" 
d="M316 384h97q95 0 95 73q0 64 -92 64h-100v-137zM399 729q154 0 262.5 -108.5t108.5 -261.5q0 -154 -108.5 -262.5t-261.5 -108.5q-154 0 -262.5 108.5t-108.5 261.5q0 154 108.5 262.5t261.5 108.5zM400 679q-130 0 -222 -94t-92 -226t92 -226t222 -94t222 94t92 226
t-92 226t-222 94zM317 146h-59v423h171q141 0 141 -112q0 -110 -114 -120q36 -44 125 -191h-68q-32 52 -63 103q-34 54 -65 86h-69z" />
    <glyph glyph-name="eec343" 
d="M509 135v213h-458v56h514v-269h-56z" />
    <glyph glyph-name="eec344" horiz-adv-x="800" 
d="M399 729q154 0 262.5 -108.5t108.5 -261.5q0 -154 -108.5 -262.5t-261.5 -108.5q-154 0 -262.5 108.5t-108.5 261.5q0 154 108.5 262.5t261.5 108.5zM400 679q-130 0 -222 -94t-92 -226t92 -226t222 -94t222 94t92 226t-92 226t-222 94zM576 439l-44 -2q-9 42 -40 68
q-35 29 -83 29q-69 0 -109.5 -48t-40.5 -122q0 -78 40 -127q41 -52 111 -52q49 0 82 28t43 75l42 -1l10 -5q-17 -70 -65 -108.5t-112 -38.5q-91 0 -151 63t-60 162q0 98 57 160t154 62q65 0 114 -37t61 -102z" />
    <glyph glyph-name="eec345" horiz-adv-x="242" 
d="M93 -60v315h57v-315h-57zM93 448v315h57v-315h-57z" />
    <glyph glyph-name="eec346" horiz-adv-x="558" 
 />
    <glyph glyph-name="eec347" 
d="M51 248v56h514v-56h-514z" />
    <glyph glyph-name="eec348" horiz-adv-x="348" 
d="M61 648l-15 26q12 20 44.5 34.5t72.5 14.5q62 0 100.5 -29t38.5 -76q0 -73 -85 -99q89 -18 89 -104q0 -55 -42 -88.5t-111 -33.5q-46 0 -80 15.5t-44 36.5l16 24q9 -18 37 -30q31 -15 71 -15q52 0 83 25t31 67q0 86 -120 86h-25v31h16q125 0 125 85q0 32 -28.5 53
t-73.5 21q-77 0 -100 -44z" />
    <glyph glyph-name="eec349" horiz-adv-x="348" 
d="M33 298v21q44 49 161 164q72 70 72 122q0 38 -27.5 62.5t-69.5 24.5q-41 0 -70.5 -18t-39.5 -44l-23 23q6 24 47.5 47t86.5 23q60 0 97.5 -32.5t37.5 -83.5q0 -68 -88 -149t-127 -129h225v-31h-282z" />
    <glyph glyph-name="eec350" horiz-adv-x="348" 
d="M209 719v-421h-39v387l-60 -26l-9 24l87 36h21z" />
    <glyph glyph-name="eec351" horiz-adv-x="854" 
d="M84 648l-15 26q12 20 44.5 34.5t72.5 14.5q62 0 100.5 -29t38.5 -76q0 -73 -85 -99q89 -18 89 -104q0 -55 -42 -88.5t-111 -33.5q-46 0 -80 15.5t-44 36.5l16 24q9 -18 37 -30q31 -15 71 -15q52 0 83 25t31 67q0 86 -120 86h-25v31h16q125 0 125 85q0 32 -28.5 53
t-73.5 21q-77 0 -100 -44zM201 -16l450 744l48 -4l-450 -744zM698 425l35 -2v-285h67v-31h-67l1 -107h-40v107h-224v25zM694 374l-178 -236h178v236z" />
    <glyph glyph-name="eec352" horiz-adv-x="854" 
d="M204 719v-421h-39v389l-63 -26l-6 22l87 36h21zM129 -16l450 744l48 -4l-450 -744zM499 0v21q44 49 161 164q72 70 72 122q0 38 -27.5 62.5t-69.5 24.5q-76 0 -109 -59l-23 23q15 27 51.5 47t81.5 20q60 0 97.5 -32.5t37.5 -83.5q0 -68 -88 -149t-127 -129h225v-31h-282z
" />
    <glyph glyph-name="eec353" horiz-adv-x="854" 
d="M208 719l-1 -421h-38v389l-63 -26l-6 22l87 36h21zM149 -16l450 744l48 -4l-450 -744zM668 425l35 -1v-286h67v-31h-67l1 -107h-40v107h-224v25zM664 374l-178 -236h178v236z" />
  </font>
</defs>
</svg>
